<?xml version="1.0" encoding="UTF-8"?><svg id="a" xmlns="http://www.w3.org/2000/svg" xmlns:xlink="http://www.w3.org/1999/xlink" viewBox="0 0 72 80"><defs><style>.d{opacity:.04;}.d,.e{fill:#4a4a4a;}.f{fill:url(#c);}.g{opacity:.05;}.g,.h{fill:#494949;}.i{stroke:#fff;}.i,.j,.k,.l{fill:none;}.i,.k,.l{stroke-linecap:round;stroke-linejoin:round;}.m{opacity:.03;}.m,.n{fill:#4b4b4b;}.o{opacity:.08;}.o,.p{fill:#474747;}.q{opacity:.06;}.q,.r{fill:#484848;}.s{opacity:.12;}.s,.t{fill:#444;}.u{opacity:.1;}.u,.v{fill:#454545;}.w{opacity:.09;}.w,.x{fill:#464646;}.y{fill:#f3f3f3;}.z{fill:#f6f6f6;}.aa{fill:#f7f7f7;}.ab{fill:#f2f2f2;}.ac{fill:#f9f9f9;}.ad{fill:#f8f8f8;}.ae,.af{fill:#040404;}.ag,.ah{fill:#010101;}.ai,.aj{fill:#030303;}.ak{fill:#060040;}.al,.am{fill:#060606;}.an,.ao{fill:#050505;}.ap,.aq{fill:#020202;}.ar{fill:#696969;}.as{fill:#676767;}.at{fill:#6a6a6a;}.au{fill:#eee;}.av{fill:#ebebeb;}.aw{fill:#f0f0f0;}.ax{fill:#eaeaea;}.ay{fill:#e9e9e9;}.az{fill:#e6e6e6;}.ba{fill:#f4f4f4;}.bb{fill:#f5f5f5;}.bc{fill:#fcfcfc;}.bd{fill:#e7e7e7;}.be{fill:#e3e3e3;}.bf{fill:#ededed;}.bg{fill:#fff;}.bh{fill:#e8e8e8;}.bi{fill:#f1f1f1;}.bj{fill:#ececec;}.bk{fill:#fefefe;}.bl{fill:#fafafa;}.bm{fill:#fbfbfb;}.bn{fill:#e5e5e5;}.bo{fill:#e2e2e2;}.bp{fill:#efefef;}.bq{fill:#e4e4e4;}.br{fill:#fdfdfd;}.bs{fill:#919191;}.bt{fill:#7d7d7d;}.bu{fill:#6b6b6b;}.bv{fill:#7e7e7e;}.bw{fill:#7f7f7f;}.bx{fill:#818181;}.by{fill:#686868;}.bz{fill:#747474;}.ca{fill:#656565;}.cb{fill:#969696;}.cc{fill:#6c6c6c;}.cd{fill:#999;}.ce{fill:#989898;}.cf{fill:#979797;}.cg{fill:#7c7c7c;}.ch{fill:#8b8b8b;}.ci{fill:#9c9c9c;}.cj{fill:#a1a1a1;}.ck{fill:#9f9f9f;}.cl{fill:#929292;}.cm{fill:#848484;}.cn{fill:#a0a0a0;}.co{fill:#b4b4b4;}.cp{fill:#8a8a8a;}.cq{fill:#b5b5b5;}.cr{fill:#b7b7b7;}.cs{fill:#b8b8b8;}.ct{fill:#9d9d9d;}.cu{fill:#9e9e9e;}.cv{fill:#b9b9b9;}.cw{fill:#c2c2c2;}.cx{fill:#909090;}.cy{fill:#b3b3b3;}.cz{fill:#8f8f8f;}.da{fill:#c1c1c1;}.db{fill:#b6b6b6;}.dc{fill:#666;}.dd{fill:#737373;}.de{fill:#bababa;}.df,.dg{fill:#323232;}.dh,.di{fill:#303030;}.dj,.dk{fill:#333;}.dl{fill:#8d8d8d;}.dm{fill:#8e8e8e;}.dn{fill:#8c8c8c;}.do{fill:#939393;}.dp{fill:#858585;}.dq{fill:#cecece;}.dr{fill:#cdcdcd;}.ds{fill:#acacac;}.dt{fill:#a9a9a9;}.du{fill:#a6a6a6;}.dv{fill:#b1b1b1;}.dw{fill:#aaa;}.dx{fill:#bcbcbc;}.dy{fill:#a7a7a7;}.dz{fill:#b0b0b0;}.ea{fill:#d8d8d8;}.eb{fill:#a5a5a5;}.ec{fill:#b2b2b2;}.ed{fill:#aeaeae;}.ee{fill:#bbb;}.ef{fill:#a4a4a4;}.eg{fill:#bfbfbf;}.eh{fill:#bdbdbd;}.ei{fill:silver;}.ej{fill:#ababab;}.ek{fill:#bebebe;}.el{fill:#ccc;}.em{fill:#cacaca;}.en{fill:#c9c9c9;}.eo{fill:#d0d0d0;}.ep{fill:#cfcfcf;}.eq{fill:#c7c7c7;}.er{fill:#dedede;}.es{fill:#ddd;}.et{fill:#cbcbcb;}.eu{fill:#d2d2d2;}.ev{fill:#d1d1d1;}.ew{fill:#c3c3c3;}.ex{fill:#c4c4c4;}.ey{fill:#d6d6d6;}.ez{fill:#dcdcdc;}.fa{fill:#dbdbdb;}.fb{fill:#d3d3d3;}.fc{fill:#dadada;}.fd{fill:#d4d4d4;}.fe{fill:#d9d9d9;}.ff{fill:#afafaf;}.fg{fill:#e0e0e0;}.fh{fill:#adadad;}.fi{fill:#d7d7d7;}.fj{fill:#c5c5c5;}.fk{fill:#c6c6c6;}.fl{fill:#e1e1e1;}.fm{fill:#c8c8c8;}.fn{fill:#d5d5d5;}.fo{fill:#dfdfdf;}.fp{fill:#a8a8a8;}.fq,.fr{fill:#121212;}.fs,.ft{fill:#131313;}.fu,.fv{fill:#171717;}.fw,.fx{fill:#161616;}.fy,.fz{fill:#252525;}.ga,.gb{fill:#242424;}.gc,.gd{fill:#1f1f1f;}.ge,.gf{fill:#1e1e1e;}.gg,.gh{fill:#222;}.gi,.gj{fill:#212121;}.gk,.gl{fill:#202020;}.gm,.gn{fill:#0c0c0c;}.go,.gp{fill:#0b0b0b;}.gq,.gr{fill:#232323;}.gs,.gt{fill:#434343;}.gu,.gv{fill:#404040;}.gw,.gx{fill:#414141;}.gy,.gz{fill:#090909;}.ha,.hb{fill:#080808;}.hc,.hd{fill:#151515;}.he,.hf{fill:#070707;}.hg,.hh{fill:#141414;}.hi,.hj{fill:#0d0d0d;}.hk,.hl{fill:#111;}.hm,.hn{fill:#101010;}.ho,.hp{fill:#1d1d1d;}.hq,.hr{fill:#0f0f0f;}.hs,.ht{fill:#424242;}.hu,.hv{fill:#1c1c1c;}.hw,.hx{fill:#0e0e0e;}.hy,.hz{fill:#363636;}.ia,.ib{fill:#373737;}.ic,.id{fill:#191919;}.ie,.if{fill:#181818;}.ig,.ih{fill:#0a0a0a;}.ii,.ij{fill:#3e3e3e;}.ik,.il{fill:#3f3f3f;}.im,.in{fill:#1b1b1b;}.io,.ip{fill:#1a1a1a;}.iq{fill:#a3a3a3;}.ir{fill:#9b9b9b;}.is{fill:#707070;}.it{fill:#717171;}.iu{fill:#949494;}.iv{fill:#6f6f6f;}.iw{fill:#727272;}.ix{fill:#a2a2a2;}.iy{fill:#959595;}.iz{fill:#545454;}.ja{fill:#535353;}.jb{fill:#868686;}.jc{fill:#9a9a9a;}.jd{fill:#898989;}.je{fill:#6d6d6d;}.jf{fill:#6e6e6e;}.jg{fill:#888;}.jh{fill:#878787;}.ji{fill:gray;}.jj{fill:#555;}.jk{fill:#646464;}.jl{fill:#636363;}.jm{fill:#626262;}.jn{fill:#5b5b5b;}.jo,.jp{fill:#292929;}.jq{fill:#595959;}.jr,.js{fill:#2b2b2b;}.jt,.ju{fill:#2c2c2c;}.jv{fill:#565656;}.jw,.jx{fill:#2a2a2a;}.jy,.jz{fill:#2d2d2d;}.ka,.kb{fill:#353535;}.kc{fill:#5c5c5c;}.kd,.ke{fill:#3b3b3b;}.kf,.kg{fill:#383838;}.kh,.ki,.kj{fill:#262626;}.kk,.kl{fill:#313131;}.km,.kn{fill:#3a3a3a;}.ko,.kp{fill:#3d3d3d;}.kq,.kr{fill:#272727;}.ks{fill:#5a5a5a;}.kt,.ku{fill:#393939;}.kv{fill:#585858;}.kw{fill:#575757;}.kx,.ky{fill:#3c3c3c;}.kz,.la{fill:#2f2f2f;}.lb{fill:#838383;}.lc,.ld{fill:#2e2e2e;}.le,.lf{fill:#4c4c4c;}.lg{fill:#5f5f5f;}.lh{fill:#616161;}.li{fill:#606060;}.lj{fill:#5d5d5d;}.lk{fill:#767676;}.ll{fill:#777;}.lm{fill:#797979;}.ln{fill:#7a7a7a;}.lo{fill:#5e5e5e;}.lp{fill:#4f4f4f;}.lq{fill:#787878;}.lr{fill:#525252;}.ls{fill:#505050;}.lt{fill:#828282;}.lu{fill:#757575;}.lv,.lw{fill:#282828;}.lx,.ly{fill:#343434;}.lz{fill:#7b7b7b;}.ma,.mb{fill:#4d4d4d;}.mc{fill:#4e4e4e;}.md{fill:#515151;}.j{mask:url(#b);}.gx{opacity:.15;}.gt{opacity:.13;}.ht{opacity:.14;}.ke{opacity:.23;}.kp{opacity:.21;}.ky{opacity:.22;}.ij{opacity:.19;}.il{opacity:.18;}.gv{opacity:.17;}.dg{opacity:.35;}.ly{opacity:.32;}.k{opacity:.75;stroke-width:2px;}.k,.l{stroke:#6ff;}.mb{opacity:0;}.l{opacity:.5;stroke-width:3px;}.lf{opacity:.01;}.id{opacity:.68;}.gj{opacity:.58;}.gr{opacity:.55;}.gl{opacity:.59;}.gd{opacity:.6;}.gf{opacity:.62;}.hp{opacity:.63;}.ki{opacity:.51;}.fz{opacity:.53;}.gb{opacity:.54;}.gh{opacity:.56;}.jp{opacity:.46;}.lw{opacity:.47;}.kr{opacity:.49;}.kj{opacity:.5;}.hb{opacity:.9;}.gz{opacity:.88;}.am{opacity:.92;}.hf{opacity:.91;}.ao{opacity:.94;}.gn{opacity:.85;}.hj{opacity:.83;}.hx{opacity:.82;}.gp{opacity:.86;}.ih{opacity:.87;}.ft{opacity:.76;}.fr{opacity:.77;}.hl{opacity:.78;}.hn{opacity:.79;}.hr{opacity:.81;}.fv{opacity:.71;}.if{opacity:.69;}.fx{opacity:.72;}.hd{opacity:.73;}.hh{opacity:.74;}.dk{opacity:.33;}.hz{opacity:.29;}.kb{opacity:.31;}.ku{opacity:.26;}.ib{opacity:.28;}.kg{opacity:.27;}.kn{opacity:.24;}.jx{opacity:.45;}.jz{opacity:.41;}.ju{opacity:.42;}.js{opacity:.44;}.la{opacity:.38;}.ld{opacity:.4;}.kl{opacity:.36;}.di{opacity:.37;}.hv{opacity:.64;}.in{opacity:.65;}.ip{opacity:.67;}.af{opacity:.95;}.aq{opacity:.97;}.aj{opacity:.96;}.ah{opacity:.99;}</style><mask id="b" x="0" y="0" width="72" height="80" maskUnits="userSpaceOnUse"><path d="m2.54,1.53C.6,1.7-.56,3.84.28,5.65l15.09,32.43,18.12,38.95c1.01,2.18,4.02,2.18,5.03,0l18.12-38.95,15.09-32.43c.84-1.81-.32-3.95-2.26-4.13C58.43.53,47.27,0,36,0S13.57.53,2.54,1.53Z"/><path class="ag" d="m2.57,1.53C.63,1.7-.54,3.84.3,5.66l15.07,32.39,18.11,38.92c1.01,2.17,4.01,2.17,5.02,0l18.11-38.92,15.07-32.39c.84-1.81-.32-3.96-2.27-4.13C58.41.53,47.26,0,36,0S13.59.53,2.57,1.53Z"/><path class="ap" d="m2.6,1.52C.65,1.7-.52,3.84.33,5.66l15.06,32.35,18.1,38.89c1.01,2.17,4,2.17,5.01,0l18.1-38.89,15.06-32.35c.85-1.82-.32-3.96-2.27-4.14C58.39.53,47.25,0,36,0S13.61.53,2.6,1.52Z"/><path class="ai" d="m2.63,1.52C.68,1.7-.49,3.84.36,5.66l15.05,32.32,18.1,38.86c1.01,2.16,3.99,2.16,5,0l18.1-38.86,15.05-32.32c.85-1.82-.32-3.97-2.27-4.14C58.37.53,47.24,0,36,0S13.63.53,2.63,1.52Z"/><path class="ae" d="m2.66,1.52C.71,1.7-.47,3.85.38,5.67l15.03,32.28,18.09,38.83c1.01,2.16,3.98,2.16,4.99,0l18.09-38.83,15.03-32.28c.85-1.82-.32-3.97-2.28-4.15C58.35.53,47.23,0,36,0S13.65.53,2.66,1.52Z"/><path class="an" d="m2.69,1.52C.73,1.69-.44,3.85.41,5.67l15.02,32.24,18.08,38.8c1,2.15,3.98,2.15,4.98,0l18.08-38.8,15.02-32.24c.85-1.82-.33-3.98-2.28-4.15C58.33.53,47.22,0,36,0S13.67.53,2.69,1.52Z"/><path class="al" d="m2.72,1.52C.76,1.69-.42,3.85.44,5.67l15,32.2,18.08,38.77c1,2.15,3.97,2.15,4.97,0l18.07-38.77,15.01-32.2c.85-1.83-.33-3.98-2.29-4.16C58.31.52,47.21,0,36,0S13.69.52,2.72,1.52Z"/><path class="he" d="m2.75,1.51C.79,1.69-.39,3.85.46,5.68l14.99,32.16,18.07,38.74c1,2.14,3.96,2.14,4.96,0l18.07-38.74,14.99-32.16c.85-1.83-.33-3.99-2.29-4.16C58.29.52,47.2,0,36,0S13.71.52,2.75,1.51Z"/><path class="ha" d="m2.78,1.51C.81,1.69-.37,3.85.49,5.68l14.98,32.12,18.06,38.71c1,2.14,3.95,2.14,4.95,0l18.06-38.71,14.98-32.12c.86-1.83-.33-3.99-2.29-4.17C58.27.52,47.19,0,36,0S13.73.52,2.78,1.51Z"/><path class="gy" d="m2.81,1.51C.84,1.69-.34,3.85.51,5.68l14.96,32.08,18.05,38.68c1,2.14,3.94,2.14,4.94,0l18.05-38.68,14.96-32.08c.86-1.83-.33-4-2.3-4.18C58.25.52,47.18,0,36,0S13.75.52,2.81,1.51Z"/><path class="ig" d="m2.84,1.51C.87,1.68-.32,3.85.54,5.69l14.95,32.04,18.05,38.66c.99,2.13,3.93,2.13,4.93,0l18.05-38.66,14.95-32.04c.86-1.84-.33-4-2.3-4.18C58.23.52,47.17,0,36,0S13.77.52,2.84,1.51Z"/><path class="go" d="m2.87,1.5C.89,1.68-.29,3.85.57,5.69l14.94,32.01,18.04,38.63c.99,2.13,3.93,2.13,4.92,0l18.04-38.63,14.94-32.01c.86-1.84-.33-4.01-2.3-4.19C58.21.52,47.16,0,36,0S13.79.52,2.87,1.5Z"/><path class="gm" d="m2.9,1.5C.92,1.68-.27,3.85.59,5.69l14.92,31.97,18.03,38.6c.99,2.12,3.92,2.12,4.91,0l18.03-38.6,14.92-31.97c.86-1.84-.33-4.01-2.31-4.19C58.19.52,47.15,0,36,0S13.81.52,2.9,1.5Z"/><path class="hi" d="m2.93,1.5C.95,1.68-.25,3.85.62,5.7l14.91,31.93,18.02,38.57c.99,2.12,3.91,2.12,4.9,0l18.02-38.57,14.91-31.93c.86-1.84-.33-4.02-2.31-4.2C58.17.52,47.14,0,36,0S13.83.52,2.93,1.5Z"/><path class="hw" d="m2.96,1.5C.97,1.68-.22,3.85.64,5.7l14.9,31.89,18.02,38.54c.98,2.11,3.9,2.11,4.89,0l18.02-38.54,14.9-31.89c.87-1.85-.33-4.03-2.32-4.2C58.15.52,47.13,0,36,0S13.85.52,2.96,1.5Z"/><path class="hq" d="m2.99,1.5C1,1.67-.2,3.86.67,5.7l14.88,31.85,18.01,38.51c.98,2.11,3.89,2.11,4.88,0l18.01-38.51,14.88-31.85c.87-1.85-.33-4.03-2.32-4.21C58.13.52,47.12,0,36,0S13.88.52,2.99,1.5Z"/><path class="hm" d="m3.02,1.49C1.03,1.67-.17,3.86.7,5.71l14.87,31.81,18,38.48c.98,2.1,3.88,2.1,4.86,0l18-38.48,14.87-31.81c.87-1.85-.33-4.04-2.32-4.21C58.11.52,47.11,0,36,0S13.9.52,3.02,1.49Z"/><path class="hk" d="m3.05,1.49C1.05,1.67-.15,3.86.72,5.71l14.86,31.77,17.99,38.45c.98,2.1,3.88,2.1,4.85,0l17.99-38.45,14.86-31.77c.87-1.85-.33-4.04-2.33-4.22C58.08.52,47.1,0,36,0S13.92.52,3.05,1.49Z"/><path class="fq" d="m3.08,1.49C1.08,1.67-.12,3.86.75,5.71l14.84,31.73,17.99,38.42c.98,2.09,3.87,2.09,4.84,0l17.99-38.42,14.84-31.73c.87-1.86-.33-4.05-2.33-4.23C58.06.52,47.09,0,36,0S13.94.52,3.08,1.49Z"/><path class="fs" d="m3.11,1.49C1.11,1.66-.1,3.86.78,5.72l14.83,31.69,17.98,38.39c.97,2.09,3.86,2.09,4.83,0l17.98-38.39,14.83-31.69c.87-1.86-.33-4.05-2.34-4.23-10.84-.97-21.81-1.49-32.89-1.49S13.96.52,3.11,1.49Z"/><path class="hg" d="m3.14,1.48C1.13,1.66-.07,3.86.8,5.72l14.81,31.66,17.97,38.36c.97,2.08,3.85,2.08,4.82,0l17.97-38.36,14.81-31.66c.88-1.86-.33-4.06-2.34-4.24C58.02.51,47.07,0,36,0S13.98.51,3.14,1.48Z"/><path class="hc" d="m3.17,1.48C1.16,1.66-.05,3.86.83,5.72l14.8,31.62,17.97,38.34c.97,2.08,3.84,2.08,4.81,0l17.96-38.34,14.8-31.62c.88-1.86-.33-4.06-2.34-4.24C58,.51,47.06,0,36,0S14,.51,3.17,1.48Z"/><path class="fw" d="m3.2,1.48C1.19,1.66-.02,3.86.85,5.73l14.79,31.58,17.96,38.31c.97,2.07,3.83,2.07,4.8,0l17.96-38.31,14.79-31.58c.88-1.87-.33-4.07-2.35-4.25C57.98.51,47.05,0,36,0S14.02.51,3.2,1.48Z"/><path class="fu" d="m3.23,1.48C1.21,1.66,0,3.86.88,5.73l14.77,31.54,17.95,38.28c.97,2.07,3.82,2.07,4.79,0l17.95-38.28,14.77-31.54c.88-1.87-.33-4.07-2.35-4.25C57.96.51,47.04,0,36,0S14.04.51,3.23,1.48Z"/><path class="ie" d="m3.26,1.48C1.24,1.65.02,3.86.91,5.73l14.76,31.5,17.94,38.25c.96,2.06,3.82,2.06,4.78,0l17.94-38.25,14.76-31.5c.88-1.87-.33-4.08-2.35-4.26C57.94.51,47.03,0,36,0S14.06.51,3.26,1.48Z"/><path class="ic" d="m3.29,1.47C1.27,1.65.05,3.86.93,5.74l14.75,31.46,17.94,38.22c.96,2.06,3.81,2.06,4.77,0l17.94-38.22,14.75-31.46c.88-1.87-.33-4.09-2.36-4.26C57.92.51,47.02,0,36,0S14.08.51,3.29,1.47Z"/><path class="io" d="m3.32,1.47C1.29,1.65.07,3.87.96,5.74l14.73,31.42,17.93,38.19c.96,2.05,3.8,2.05,4.76,0l17.93-38.19,14.73-31.42c.89-1.88-.33-4.09-2.36-4.27C57.9.51,47.01,0,36,0S14.1.51,3.32,1.47Z"/><path class="im" d="m3.35,1.47C1.32,1.65.1,3.87.99,5.74l14.72,31.38,17.92,38.16c.96,2.05,3.79,2.05,4.75,0l17.92-38.16,14.72-31.38c.89-1.88-.34-4.1-2.37-4.28C57.88.51,47,0,36,0S14.12.51,3.35,1.47Z"/><path class="hu" d="m3.38,1.47C1.35,1.65.12,3.87,1.01,5.75l14.71,31.35,17.91,38.13c.96,2.04,3.78,2.04,4.74,0l17.91-38.13,14.71-31.35c.89-1.88-.34-4.1-2.37-4.28C57.86.51,46.99,0,36,0S14.14.51,3.38,1.47Z"/><path class="ho" d="m3.41,1.46C1.37,1.64.15,3.87,1.04,5.75l14.69,31.31,17.91,38.1c.95,2.04,3.77,2.04,4.73,0l17.91-38.1,14.69-31.31c.89-1.88-.34-4.11-2.37-4.29C57.84.51,46.98,0,36,0S14.16.51,3.41,1.46Z"/><path class="ge" d="m3.44,1.46C1.4,1.64.17,3.87,1.06,5.75l14.68,31.27,17.9,38.07c.95,2.04,3.77,2.04,4.72,0l17.9-38.07,14.68-31.27c.89-1.89-.34-4.11-2.38-4.29C57.82.51,46.97,0,36,0S14.18.51,3.44,1.46Z"/><path class="gc" d="m3.47,1.46C1.43,1.64.2,3.87,1.09,5.76l14.66,31.23,17.89,38.04c.95,2.03,3.76,2.03,4.71,0l17.89-38.04,14.67-31.23c.89-1.89-.34-4.12-2.38-4.3C57.8.51,46.96,0,36,0S14.2.51,3.47,1.46Z"/><path class="gk" d="m3.5,1.46C1.45,1.64.22,3.87,1.12,5.76l14.65,31.19,17.88,38.01c.95,2.03,3.75,2.03,4.7,0l17.88-38.01,14.65-31.19c.89-1.89-.34-4.12-2.39-4.3C57.78.51,46.95,0,36,0S14.22.51,3.5,1.46Z"/><path class="gi" d="m3.53,1.46C1.48,1.64.25,3.87,1.14,5.76l14.64,31.15,17.88,37.99c.95,2.02,3.74,2.02,4.69,0l17.88-37.99,14.64-31.15c.9-1.89-.34-4.13-2.39-4.31C57.76.5,46.94,0,36,0S14.24.5,3.53,1.46Z"/><path class="gg" d="m3.56,1.45C1.51,1.63.27,3.87,1.17,5.77l14.62,31.11,17.87,37.96c.94,2.02,3.73,2.02,4.68,0l17.87-37.96,14.62-31.11c.9-1.9-.34-4.13-2.39-4.31C57.74.5,46.93,0,36,0S14.26.5,3.56,1.45Z"/><path class="gq" d="m3.59,1.45C1.53,1.63.29,3.87,1.19,5.77l14.61,31.07,17.86,37.93c.94,2.01,3.72,2.01,4.67,0l17.86-37.93,14.61-31.07c.9-1.9-.34-4.14-2.4-4.32C57.72.5,46.92,0,36,0S14.28.5,3.59,1.45Z"/><path class="ga" d="m3.62,1.45C1.56,1.63.32,3.87,1.22,5.77l14.6,31.03,17.85,37.9c.94,2.01,3.72,2.01,4.66,0l17.85-37.9,14.6-31.03c.9-1.9-.34-4.14-2.4-4.32C57.7.5,46.91,0,36,0S14.3.5,3.62,1.45Z"/><path class="fy" d="m3.65,1.45C1.59,1.63.34,3.88,1.25,5.78l14.58,31,17.85,37.87c.94,2,3.71,2,4.65,0l17.85-37.87,14.58-31c.9-1.9-.34-4.15-2.4-4.33C57.68.5,46.9,0,36,0S14.32.5,3.65,1.45Z"/><path class="kh" d="m3.68,1.45C1.61,1.63.37,3.88,1.27,5.78l14.57,30.96,17.84,37.84c.94,2,3.7,2,4.64,0l17.84-37.84,14.57-30.96c.9-1.91-.34-4.16-2.41-4.34C57.66.5,46.89,0,36,0S14.34.5,3.68,1.45Z"/><path class="kq" d="m3.71,1.44C1.64,1.62.39,3.88,1.3,5.78l14.56,30.92,17.83,37.81c.93,1.99,3.69,1.99,4.62,0l17.83-37.81,14.56-30.92c.91-1.91-.34-4.16-2.41-4.34C57.64.5,46.88,0,36,0S14.36.5,3.71,1.44Z"/><path class="lv" d="m3.74,1.44C1.67,1.62.42,3.88,1.33,5.79l14.54,30.88,17.83,37.78c.93,1.99,3.68,1.99,4.61,0l17.83-37.78,14.54-30.88c.91-1.91-.34-4.17-2.42-4.35C57.62.5,46.87,0,36,0S14.38.5,3.74,1.44Z"/><path class="jo" d="m3.77,1.44C1.69,1.62.44,3.88,1.35,5.79l14.53,30.84,17.82,37.75c.93,1.98,3.67,1.98,4.6,0l17.82-37.75,14.53-30.84c.91-1.91-.34-4.17-2.42-4.35C57.6.5,46.86,0,36,0S14.4.5,3.77,1.44Z"/><path class="jw" d="m3.8,1.44C1.72,1.62.47,3.88,1.38,5.79l14.51,30.8,17.81,37.72c.93,1.98,3.67,1.98,4.59,0l17.81-37.72,14.52-30.8c.91-1.92-.34-4.18-2.42-4.36C57.58.5,46.85,0,36,0S14.42.5,3.8,1.44Z"/><path class="jr" d="m3.83,1.43C1.75,1.62.49,3.88,1.4,5.8l14.5,30.76,17.8,37.69c.93,1.97,3.66,1.97,4.58,0l17.8-37.69,14.5-30.76c.91-1.92-.34-4.18-2.43-4.36C57.56.5,46.84,0,36,0S14.44.5,3.83,1.43Z"/><path class="jt" d="m3.86,1.43C1.77,1.61.52,3.88,1.43,5.8l14.49,30.72,17.8,37.67c.92,1.97,3.65,1.97,4.57,0l17.8-37.67,14.49-30.72c.91-1.92-.34-4.19-2.43-4.37C57.54.5,46.83,0,36,0S14.46.5,3.86,1.43Z"/><path class="jy" d="m3.89,1.43C1.8,1.61.54,3.88,1.46,5.8l14.47,30.69,17.79,37.64c.92,1.96,3.64,1.96,4.56,0l17.79-37.64,14.47-30.69c.92-1.92-.34-4.19-2.44-4.37C57.52.5,46.82,0,36,0S14.48.5,3.89,1.43Z"/><path class="lc" d="m3.92,1.43C1.83,1.61.57,3.88,1.48,5.81l14.46,30.65,17.78,37.61c.92,1.96,3.63,1.96,4.55,0l17.78-37.61,14.46-30.65c.92-1.92-.34-4.2-2.44-4.38C57.5.49,46.81,0,36,0S14.5.49,3.92,1.43Z"/><path class="kz" d="m3.95,1.43C1.85,1.61.59,3.88,1.51,5.81l14.45,30.61,17.77,37.58c.92,1.95,3.62,1.95,4.54,0l17.77-37.58,14.45-30.61c.92-1.93-.34-4.2-2.44-4.39C57.48.49,46.8,0,36,0S14.52.49,3.95,1.43Z"/><path class="dh" d="m3.98,1.42C1.88,1.61.61,3.89,1.54,5.81l14.43,30.57,17.77,37.55c.92,1.95,3.61,1.95,4.53,0l17.77-37.55,14.43-30.57c.92-1.93-.34-4.21-2.45-4.39C57.46.49,46.79,0,36,0S14.54.49,3.98,1.42Z"/><path class="kk" d="m4.01,1.42C1.91,1.6.64,3.89,1.56,5.82l14.42,30.53,17.76,37.52c.91,1.94,3.61,1.94,4.52,0l17.76-37.52,14.42-30.53c.92-1.93-.35-4.21-2.45-4.4C57.44.49,46.77,0,36,0S14.56.49,4.01,1.42Z"/><path class="df" d="m4.04,1.42C1.93,1.6.66,3.89,1.59,5.82l14.41,30.49,17.75,37.49c.91,1.94,3.6,1.94,4.51,0l17.75-37.49,14.41-30.49c.92-1.93-.35-4.22-2.45-4.4C57.42.49,46.76,0,36,0S14.58.49,4.04,1.42Z"/><path class="dj" d="m4.07,1.42C1.96,1.6.69,3.89,1.61,5.82l14.39,30.45,17.74,37.46c.91,1.94,3.59,1.94,4.5,0l17.74-37.46,14.39-30.45c.93-1.94-.35-4.23-2.46-4.41C57.4.49,46.75,0,36,0S14.6.49,4.07,1.42Z"/><path class="lx" d="m4.1,1.41C1.99,1.6.71,3.89,1.64,5.83l14.38,30.41,17.74,37.43c.91,1.93,3.58,1.93,4.49,0l17.74-37.43,14.38-30.41c.93-1.94-.35-4.23-2.46-4.41C57.38.49,46.74,0,36,0S14.62.49,4.1,1.41Z"/><path class="ka" d="m4.13,1.41c-2.12.18-3.39,2.48-2.47,4.42l14.36,30.37,17.73,37.4c.91,1.93,3.57,1.93,4.48,0l17.73-37.4,14.37-30.37c.93-1.94-.35-4.24-2.47-4.42C57.36.49,46.73,0,36,0S14.64.49,4.13,1.41Z"/><path class="hy" d="m4.16,1.41c-2.12.18-3.4,2.48-2.47,4.42l14.35,30.34,17.72,37.37c.9,1.92,3.56,1.92,4.47,0l17.72-37.37,14.35-30.34c.93-1.94-.35-4.24-2.47-4.42C57.34.49,46.72,0,36,0S14.66.49,4.16,1.41Z"/><path class="ia" d="m4.19,1.41c-2.13.18-3.41,2.48-2.47,4.43l14.34,30.3,17.72,37.35c.9,1.92,3.56,1.92,4.46,0l17.72-37.35,14.34-30.3c.93-1.95-.35-4.25-2.47-4.43C57.32.49,46.71,0,36,0S14.68.49,4.19,1.41Z"/><path class="kf" d="m4.22,1.41c-2.13.18-3.41,2.49-2.48,4.44l14.32,30.26,17.71,37.32c.9,1.91,3.55,1.91,4.45,0l17.71-37.32,14.32-30.26c.93-1.95-.35-4.25-2.48-4.44C57.3.49,46.7,0,36,0S14.7.49,4.22,1.41Z"/><path class="kt" d="m4.25,1.4c-2.13.18-3.42,2.49-2.48,4.44l14.31,30.22,17.7,37.29c.9,1.91,3.54,1.91,4.44,0l17.7-37.29,14.31-30.22c.94-1.95-.35-4.26-2.48-4.44C57.28.49,46.69,0,36,0S14.72.49,4.25,1.4Z"/><path class="km" d="m4.28,1.4c-2.14.18-3.42,2.49-2.49,4.45l14.3,30.18,17.69,37.26c.9,1.9,3.53,1.9,4.43,0l17.69-37.26,14.3-30.18c.94-1.95-.35-4.26-2.49-4.45C57.26.49,46.68,0,36,0S14.74.49,4.28,1.4Z"/><path class="kd" d="m4.31,1.4c-2.14.18-3.43,2.5-2.49,4.45l14.28,30.14,17.69,37.23c.89,1.9,3.52,1.9,4.42,0l17.69-37.23,14.28-30.14c.94-1.96-.35-4.27-2.49-4.45C57.24.48,46.67,0,36,0S14.76.48,4.31,1.4Z"/><path class="kx" d="m4.34,1.4c-2.14.18-3.43,2.5-2.49,4.46l14.27,30.1,17.68,37.2c.89,1.89,3.51,1.89,4.41,0l17.68-37.2,14.27-30.1c.94-1.96-.35-4.27-2.49-4.46C57.22.48,46.66,0,36,0S14.78.48,4.34,1.4Z"/><path class="ko" d="m4.37,1.4c-2.15.18-3.44,2.5-2.5,4.46l14.26,30.06,17.67,37.17c.89,1.89,3.51,1.89,4.4,0l17.67-37.17,14.26-30.06c.94-1.96-.35-4.28-2.5-4.46C57.2.48,46.65,0,36,0S14.8.48,4.37,1.4Z"/><path class="ii" d="m4.4,1.39c-2.15.18-3.44,2.5-2.5,4.47l14.24,30.03,17.66,37.14c.89,1.88,3.5,1.88,4.38,0l17.66-37.14,14.24-30.03c.94-1.96-.35-4.29-2.5-4.47C57.18.48,46.64,0,36,0S14.82.48,4.4,1.39Z"/><path class="ik" d="m4.43,1.39c-2.15.18-3.45,2.51-2.5,4.47l14.23,29.99,17.66,37.11c.89,1.88,3.49,1.88,4.37,0l17.66-37.11,14.23-29.99c.95-1.97-.35-4.29-2.5-4.47C57.16.48,46.63,0,36,0S14.84.48,4.43,1.39Z"/><path class="gu" d="m4.46,1.39c-2.16.18-3.45,2.51-2.51,4.48l14.21,29.95,17.65,37.08c.88,1.87,3.48,1.87,4.36,0l17.65-37.08,14.22-29.95c.95-1.97-.35-4.3-2.51-4.48C57.14.48,46.62,0,36,0S14.86.48,4.46,1.39Z"/><path class="gw" d="m4.49,1.39c-2.16.18-3.46,2.51-2.51,4.49l14.2,29.91,17.64,37.05c.88,1.87,3.47,1.87,4.35,0l17.64-37.05,14.2-29.91c.95-1.97-.35-4.3-2.51-4.49C57.12.48,46.61,0,36,0S14.88.48,4.49,1.39Z"/><path class="hs" d="m4.52,1.38c-2.16.18-3.47,2.52-2.52,4.49l14.19,29.87,17.63,37.02c.88,1.86,3.46,1.86,4.34,0l17.63-37.02,14.19-29.87c.95-1.97-.35-4.31-2.52-4.49C57.1.48,46.6,0,36,0S14.9.48,4.52,1.38Z"/><path class="gs" d="m4.55,1.38c-2.17.18-3.47,2.52-2.52,4.5l14.17,29.83,17.63,37c.88,1.86,3.45,1.86,4.33,0l17.63-37,14.17-29.83c.95-1.98-.35-4.31-2.52-4.5C57.08.48,46.59,0,36,0S14.92.48,4.55,1.38Z"/><path class="t" d="m4.58,1.38c-2.17.18-3.48,2.52-2.52,4.5l14.16,29.79,17.62,36.97c.88,1.85,3.45,1.85,4.32,0l17.62-36.97,14.16-29.79c.95-1.98-.35-4.32-2.52-4.5C57.06.48,46.58,0,36,0S14.94.48,4.58,1.38Z"/><path class="v" d="m4.61,1.38c-2.17.18-3.48,2.53-2.53,4.51l14.15,29.75,17.61,36.94c.87,1.85,3.44,1.85,4.31,0l17.61-36.94,14.15-29.75c.96-1.98-.35-4.32-2.53-4.51C57.04.48,46.57,0,36,0S14.96.48,4.61,1.38Z"/><path class="x" d="m4.64,1.38c-2.18.18-3.49,2.53-2.53,4.51l14.13,29.71,17.61,36.91c.87,1.84,3.43,1.84,4.3,0l17.6-36.91,14.13-29.71c.96-1.98-.36-4.33-2.53-4.51C57.02.48,46.56,0,36,0S14.98.48,4.64,1.38Z"/><path class="p" d="m4.67,1.37c-2.18.18-3.49,2.53-2.53,4.52l14.12,29.68,17.6,36.88c.87,1.84,3.42,1.84,4.29,0l17.6-36.88,14.12-29.68c.96-1.99-.36-4.33-2.53-4.52C57,.48,46.55,0,36,0S15,.48,4.67,1.37Z"/><path class="r" d="m4.7,1.37c-2.18.19-3.5,2.54-2.54,4.52l14.11,29.64,17.59,36.85c.87,1.83,3.41,1.83,4.28,0l17.59-36.85,14.11-29.64c.96-1.99-.36-4.34-2.54-4.52C56.98.47,46.54,0,36,0S15.02.47,4.7,1.37Z"/><path class="h" d="m4.73,1.37c-2.19.19-3.5,2.54-2.54,4.53l14.09,29.6,17.58,36.82c.87,1.83,3.4,1.83,4.27,0l17.58-36.82,14.09-29.6c.96-1.99-.36-4.34-2.54-4.53C56.96.47,46.53,0,36,0S15.04.47,4.73,1.37Z"/><path class="e" d="m4.76,1.37c-2.19.19-3.51,2.54-2.55,4.54l14.08,29.56,17.58,36.79c.86,1.83,3.4,1.83,4.26,0l17.58-36.79,14.08-29.56c.96-1.99-.36-4.35-2.55-4.54C56.94.47,46.52,0,36,0S15.06.47,4.76,1.37Z"/><path class="n" d="m4.79,1.36c-2.19.19-3.51,2.54-2.55,4.54l14.06,29.52,17.57,36.76c.86,1.82,3.39,1.82,4.25,0l17.57-36.76,14.07-29.52c.96-2-.36-4.36-2.55-4.54C56.92.47,46.51,0,36,0S15.08.47,4.79,1.36Z"/><path class="le" d="m4.82,1.36c-2.2.19-3.52,2.55-2.55,4.55l14.05,29.48,17.56,36.73c.86,1.82,3.38,1.82,4.24,0l17.56-36.73,14.05-29.48c.97-2-.36-4.36-2.55-4.55C56.9.47,46.5,0,36,0S15.1.47,4.82,1.36Z"/><path class="ma" d="m4.85,1.36c-2.2.19-3.53,2.55-2.56,4.55l14.04,29.44,17.55,36.7c.86,1.81,3.37,1.81,4.23,0l17.55-36.7,14.04-29.44c.97-2-.36-4.37-2.56-4.55C56.88.47,46.49,0,36,0S15.12.47,4.85,1.36Z"/><path class="mc" d="m4.88,1.36c-2.2.19-3.53,2.55-2.56,4.56l14.02,29.4,17.55,36.68c.86,1.81,3.36,1.81,4.22,0l17.55-36.68,14.02-29.4c.97-2-.36-4.37-2.56-4.56C56.86.47,46.48,0,36,0S15.15.47,4.88,1.36Z"/><path class="lp" d="m4.91,1.36c-2.21.19-3.54,2.56-2.57,4.56l14.01,29.37,17.54,36.65c.85,1.8,3.35,1.8,4.21,0l17.54-36.65,14.01-29.37c.97-2.01-.36-4.38-2.57-4.56C56.84.47,46.47,0,36,0S15.17.47,4.91,1.36Z"/><path class="ls" d="m4.94,1.35c-2.21.19-3.54,2.56-2.57,4.57l14,29.33,17.53,36.62c.85,1.8,3.35,1.8,4.2,0l17.53-36.62,14-29.33c.97-2.01-.36-4.38-2.57-4.57C56.81.47,46.46,0,36,0S15.19.47,4.94,1.35Z"/><path class="md" d="m4.97,1.35c-2.21.19-3.55,2.56-2.57,4.57l13.98,29.29,17.52,36.59c.85,1.79,3.34,1.79,4.19,0l17.52-36.59,13.98-29.29c.97-2.01-.36-4.39-2.57-4.57C56.79.47,46.45,0,36,0S15.21.47,4.97,1.35Z"/><path class="lr" d="m5,1.35c-2.22.19-3.55,2.57-2.58,4.58l13.97,29.25,17.52,36.56c.85,1.79,3.33,1.79,4.18,0l17.52-36.56,13.97-29.25c.98-2.01-.36-4.39-2.58-4.58C56.77.47,46.44,0,36,0S15.23.47,5,1.35Z"/><path class="ja" d="m5.03,1.35c-2.22.19-3.56,2.57-2.58,4.59l13.96,29.21,17.51,36.53c.85,1.78,3.32,1.78,4.17,0l17.51-36.53,13.96-29.21c.98-2.02-.36-4.4-2.58-4.59C56.75.47,46.43,0,36,0S15.25.47,5.03,1.35Z"/><path class="iz" d="m5.06,1.35c-2.22.19-3.56,2.57-2.58,4.59l13.94,29.17,17.5,36.5c.84,1.78,3.31,1.78,4.15,0l17.5-36.5,13.94-29.17c.98-2.02-.36-4.4-2.58-4.59C56.73.47,46.42,0,36,0S15.27.47,5.06,1.35Z"/><path class="jj" d="m5.09,1.34c-2.23.19-3.57,2.57-2.59,4.6l13.93,29.13,17.5,36.47c.84,1.77,3.3,1.77,4.14,0l17.49-36.47,13.93-29.13c.98-2.02-.36-4.41-2.59-4.6C56.71.46,46.41,0,36,0S15.29.46,5.09,1.34Z"/><path class="jv" d="m5.12,1.34c-2.23.19-3.58,2.58-2.59,4.6l13.91,29.09,17.49,36.44c.84,1.77,3.3,1.77,4.13,0l17.49-36.44,13.92-29.09c.98-2.02-.36-4.41-2.59-4.6C56.69.46,46.4,0,36,0S15.31.46,5.12,1.34Z"/><path class="kw" d="m5.15,1.34c-2.23.19-3.58,2.58-2.6,4.61l13.9,29.05,17.48,36.41c.84,1.76,3.29,1.76,4.12,0l17.48-36.41,13.9-29.05c.98-2.03-.36-4.42-2.6-4.61C56.67.46,46.39,0,36,0S15.33.46,5.15,1.34Z"/><path class="kv" d="m5.18,1.34c-2.24.19-3.59,2.58-2.6,4.61l13.89,29.02,17.47,36.38c.83,1.76,3.28,1.76,4.11,0l17.47-36.38,13.89-29.02c.99-2.03-.36-4.43-2.6-4.61C56.65.46,46.38,0,36,0S15.35.46,5.18,1.34Z"/><path class="jq" d="m5.21,1.33c-2.24.19-3.59,2.59-2.6,4.62l13.87,28.98,17.47,36.36c.83,1.75,3.27,1.75,4.1,0l17.47-36.36,13.87-28.98c.99-2.03-.36-4.43-2.6-4.62C56.63.46,46.37,0,36,0S15.37.46,5.21,1.33Z"/><path class="ks" d="m5.24,1.33c-2.24.19-3.6,2.59-2.61,4.62l13.86,28.94,17.46,36.33c.83,1.75,3.26,1.75,4.09,0l17.46-36.33,13.86-28.94c.99-2.03-.36-4.44-2.61-4.62C56.61.46,46.36,0,36,0S15.39.46,5.24,1.33Z"/><path class="jn" d="m5.27,1.33c-2.25.19-3.6,2.59-2.61,4.63l13.85,28.9,17.45,36.3c.83,1.74,3.25,1.74,4.08,0l17.45-36.3,13.85-28.9c.99-2.04-.36-4.44-2.61-4.63C56.59.46,46.35,0,36,0S15.41.46,5.27,1.33Z"/><path class="kc" d="m5.3,1.33c-2.25.19-3.61,2.6-2.62,4.63l13.83,28.86,17.44,36.27c.83,1.74,3.24,1.74,4.07,0l17.44-36.27,13.83-28.86c.99-2.04-.37-4.45-2.62-4.63C56.57.46,46.34,0,36,0S15.43.46,5.3,1.33Z"/><path class="lj" d="m5.33,1.33c-2.25.19-3.61,2.6-2.62,4.64l13.82,28.82,17.44,36.24c.82,1.73,3.24,1.73,4.06,0l17.44-36.24,13.82-28.82c.99-2.04-.37-4.45-2.62-4.64C56.55.46,46.33,0,36,0S15.45.46,5.33,1.33Z"/><path class="lo" d="m5.36,1.32c-2.26.19-3.62,2.6-2.62,4.65l13.81,28.78,17.43,36.21c.82,1.73,3.23,1.73,4.05,0l17.43-36.21,13.81-28.78c1-2.04-.37-4.46-2.62-4.65C56.53.46,46.32,0,36,0S15.47.46,5.36,1.32Z"/><path class="lg" d="m5.39,1.32c-2.26.19-3.62,2.61-2.63,4.65l13.79,28.74,17.42,36.18c.82,1.73,3.22,1.73,4.04,0l17.42-36.18,13.79-28.74c1-2.05-.37-4.46-2.63-4.65C56.51.46,46.31,0,36,0S15.49.46,5.39,1.32Z"/><path class="li" d="m5.42,1.32c-2.26.19-3.63,2.61-2.63,4.66l13.78,28.71,17.41,36.15c.82,1.72,3.21,1.72,4.03,0l17.41-36.15,13.78-28.71c1-2.05-.37-4.47-2.63-4.66C56.49.46,46.3,0,36,0S15.51.46,5.42,1.32Z"/><path class="lh" d="m5.45,1.32c-2.27.19-3.64,2.61-2.63,4.66l13.76,28.67,17.41,36.12c.82,1.72,3.2,1.72,4.02,0l17.41-36.12,13.77-28.67c1-2.05-.37-4.47-2.63-4.66C56.47.46,46.29,0,36,0S15.53.46,5.45,1.32Z"/><path class="jm" d="m5.48,1.31c-2.27.19-3.64,2.61-2.64,4.67l13.75,28.63,17.4,36.09c.81,1.71,3.19,1.71,4.01,0l17.4-36.09,13.75-28.63c1-2.05-.37-4.48-2.64-4.67C56.45.46,46.28,0,36,0S15.55.46,5.48,1.31Z"/><path class="jl" d="m5.51,1.31c-2.27.19-3.65,2.62-2.64,4.67l13.74,28.59,17.39,36.06c.81,1.71,3.19,1.71,4,0l17.39-36.06,13.74-28.59c1-2.06-.37-4.48-2.64-4.67C56.43.45,46.27,0,36,0S15.57.45,5.51,1.31Z"/><path class="jk" d="m5.54,1.31c-2.28.19-3.65,2.62-2.65,4.68l13.72,28.55,17.38,36.03c.81,1.7,3.18,1.7,3.99,0l17.38-36.03,13.72-28.55c1.01-2.06-.37-4.49-2.65-4.68C56.41.45,46.26,0,36,0S15.59.45,5.54,1.31Z"/><path class="ca" d="m5.57,1.31c-2.28.19-3.66,2.62-2.65,4.68l13.71,28.51,17.38,36.01c.81,1.7,3.17,1.7,3.98,0l17.38-36.01,13.71-28.51c1.01-2.06-.37-4.5-2.65-4.68C56.39.45,46.25,0,36,0S15.61.45,5.57,1.31Z"/><path class="dc" d="m5.6,1.31c-2.28.19-3.66,2.63-2.65,4.69l13.7,28.47,17.37,35.98c.81,1.69,3.16,1.69,3.97,0l17.37-35.98,13.7-28.47c1.01-2.06-.37-4.5-2.65-4.69C56.37.45,46.24,0,36,0S15.63.45,5.6,1.31Z"/><path class="as" d="m5.63,1.3c-2.29.19-3.67,2.63-2.66,4.7l13.68,28.43,17.36,35.95c.8,1.69,3.15,1.69,3.96,0l17.36-35.95,13.68-28.43c1.01-2.07-.37-4.51-2.66-4.7C56.35.45,46.23,0,36,0S15.65.45,5.63,1.3Z"/><path class="by" d="m5.66,1.3c-2.29.19-3.67,2.63-2.66,4.7l13.67,28.39,17.36,35.92c.8,1.68,3.14,1.68,3.95,0l17.36-35.92,13.67-28.39c1.01-2.07-.37-4.51-2.66-4.7C56.33.45,46.22,0,36,0S15.67.45,5.66,1.3Z"/><path class="ar" d="m5.69,1.3c-2.29.19-3.68,2.64-2.67,4.71l13.66,28.36,17.35,35.89c.8,1.68,3.14,1.68,3.94,0l17.35-35.89,13.66-28.36c1.01-2.07-.37-4.52-2.67-4.71C56.31.45,46.21,0,36,0S15.69.45,5.69,1.3Z"/><path class="at" d="m5.72,1.3c-2.3.19-3.68,2.64-2.67,4.71l13.64,28.32,17.34,35.86c.8,1.67,3.13,1.67,3.93,0l17.34-35.86,13.64-28.32c1.02-2.07-.37-4.52-2.67-4.71C56.29.45,46.2,0,36,0S15.71.45,5.72,1.3Z"/><path class="bu" d="m5.75,1.3c-2.3.19-3.69,2.64-2.67,4.72l13.63,28.28,17.33,35.83c.8,1.67,3.12,1.67,3.91,0l17.33-35.83,13.63-28.28c1.02-2.08-.37-4.53-2.67-4.72C56.27.45,46.19,0,36,0S15.73.45,5.75,1.3Z"/><path class="cc" d="m5.78,1.29c-2.3.19-3.7,2.65-2.68,4.72l13.61,28.24,17.33,35.8c.79,1.66,3.11,1.66,3.9,0l17.33-35.8,13.62-28.24c1.02-2.08-.37-4.53-2.68-4.72C56.25.45,46.18,0,36,0S15.75.45,5.78,1.29Z"/><path class="je" d="m5.81,1.29c-2.31.19-3.7,2.65-2.68,4.73l13.6,28.2,17.32,35.77c.79,1.66,3.1,1.66,3.89,0l17.32-35.77,13.6-28.2c1.02-2.08-.37-4.54-2.68-4.73C56.23.45,46.17,0,36,0S15.77.45,5.81,1.29Z"/><path class="jf" d="m5.84,1.29c-2.31.19-3.71,2.65-2.68,4.73l13.59,28.16,17.31,35.74c.79,1.65,3.09,1.65,3.88,0l17.31-35.74,13.59-28.16c1.02-2.08-.37-4.54-2.68-4.73C56.21.45,46.16,0,36,0S15.79.45,5.84,1.29Z"/><path class="iv" d="m5.87,1.29c-2.31.19-3.71,2.65-2.69,4.74l13.57,28.12,17.3,35.71c.79,1.65,3.08,1.65,3.87,0l17.3-35.71,13.57-28.12c1.02-2.09-.37-4.55-2.69-4.74C56.19.45,46.15,0,36,0S15.81.45,5.87,1.29Z"/><path class="is" d="m5.9,1.28c-2.32.19-3.72,2.66-2.69,4.75l13.56,28.08,17.3,35.69c.79,1.64,3.08,1.64,3.86,0l17.3-35.69,13.56-28.08c1.02-2.09-.37-4.56-2.69-4.75C56.17.44,46.14,0,36,0S15.83.44,5.9,1.28Z"/><path class="it" d="m5.93,1.28c-2.32.19-3.72,2.66-2.7,4.75l13.55,28.05,17.29,35.66c.78,1.64,3.07,1.64,3.85,0l17.29-35.66,13.55-28.05c1.03-2.09-.38-4.56-2.7-4.75C56.15.44,46.13,0,36,0S15.85.44,5.93,1.28Z"/><path class="iw" d="m5.96,1.28c-2.32.19-3.73,2.66-2.7,4.76l13.53,28.01,17.28,35.63c.78,1.63,3.06,1.63,3.84,0l17.28-35.63,13.53-28.01c1.03-2.09-.38-4.57-2.7-4.76C56.13.44,46.12,0,36,0S15.87.44,5.96,1.28Z"/><path class="dd" d="m5.99,1.28c-2.33.19-3.73,2.67-2.7,4.76l13.52,27.97,17.27,35.6c.78,1.63,3.05,1.63,3.83,0l17.27-35.6,13.52-27.97c1.03-2.1-.38-4.57-2.7-4.76C56.11.44,46.11,0,36,0S15.89.44,5.99,1.28Z"/><path class="bz" d="m6.02,1.28c-2.33.19-3.74,2.67-2.71,4.77l13.51,27.93,17.27,35.57c.78,1.63,3.04,1.63,3.82,0l17.27-35.57,13.51-27.93c1.03-2.1-.38-4.58-2.71-4.77C56.09.44,46.1,0,36,0S15.91.44,6.02,1.28Z"/><path class="lu" d="m6.05,1.27c-2.33.19-3.74,2.67-2.71,4.77l13.49,27.89,17.26,35.54c.78,1.62,3.03,1.62,3.81,0l17.26-35.54,13.49-27.89c1.03-2.1-.38-4.58-2.71-4.77C56.07.44,46.08,0,36,0S15.93.44,6.05,1.27Z"/><path class="lk" d="m6.08,1.27c-2.34.19-3.75,2.68-2.72,4.78l13.48,27.85,17.25,35.51c.77,1.62,3.03,1.62,3.8,0l17.25-35.51,13.48-27.85c1.03-2.1-.38-4.59-2.72-4.78C56.05.44,46.07,0,36,0S15.95.44,6.08,1.27Z"/><path class="ll" d="m6.11,1.27c-2.34.19-3.76,2.68-2.72,4.78l13.46,27.81,17.25,35.48c.77,1.61,3.02,1.61,3.79,0l17.25-35.48,13.47-27.81c1.04-2.1-.38-4.59-2.72-4.78C56.03.44,46.06,0,36,0S15.97.44,6.11,1.27Z"/><path class="lq" d="m6.14,1.27c-2.34.19-3.76,2.68-2.72,4.79l13.45,27.77,17.24,35.45c.77,1.61,3.01,1.61,3.78,0l17.24-35.45,13.45-27.77c1.04-2.11-.38-4.6-2.72-4.79C56.01.44,46.05,0,36,0S15.99.44,6.14,1.27Z"/><path class="lm" d="m6.17,1.26c-2.35.19-3.77,2.69-2.73,4.8l13.44,27.73,17.23,35.42c.77,1.6,3,1.6,3.77,0l17.23-35.42,13.44-27.73c1.04-2.11-.38-4.6-2.73-4.8C55.99.44,46.04,0,36,0S16.01.44,6.17,1.26Z"/><path class="ln" d="m6.2,1.26c-2.35.19-3.77,2.69-2.73,4.8l13.42,27.7,17.22,35.39c.77,1.6,2.99,1.6,3.76,0l17.22-35.39,13.42-27.7c1.04-2.11-.38-4.61-2.73-4.8C55.97.44,46.03,0,36,0S16.03.44,6.2,1.26Z"/><path class="lz" d="m6.23,1.26c-2.35.19-3.78,2.69-2.73,4.81l13.41,27.66,17.22,35.37c.76,1.59,2.98,1.59,3.75,0l17.22-35.36,13.41-27.66c1.04-2.11-.38-4.61-2.73-4.81C55.95.44,46.02,0,36,0S16.05.44,6.23,1.26Z"/><path class="cg" d="m6.26,1.26c-2.36.19-3.78,2.69-2.74,4.81l13.4,27.62,17.21,35.34c.76,1.59,2.98,1.59,3.74,0l17.21-35.34,13.4-27.62c1.04-2.12-.38-4.62-2.74-4.81C55.93.44,46.01,0,36,0S16.07.44,6.26,1.26Z"/><path class="bt" d="m6.29,1.26c-2.36.19-3.79,2.7-2.74,4.82l13.38,27.58,17.2,35.31c.76,1.58,2.97,1.58,3.73,0l17.2-35.31,13.38-27.58c1.05-2.12-.38-4.63-2.74-4.82C55.91.43,46,0,36,0S16.09.43,6.29,1.26Z"/><path class="bv" d="m6.32,1.25c-2.36.19-3.79,2.7-2.75,4.82l13.37,27.54,17.19,35.28c.76,1.58,2.96,1.58,3.72,0l17.19-35.28,13.37-27.54c1.05-2.12-.38-4.63-2.75-4.82C55.89.43,45.99,0,36,0S16.11.43,6.32,1.25Z"/><path class="bw" d="m6.35,1.25c-2.37.19-3.8,2.7-2.75,4.83l13.36,27.5,17.19,35.25c.76,1.57,2.95,1.57,3.71,0l17.19-35.25,13.36-27.5c1.05-2.12-.38-4.64-2.75-4.83C55.87.43,45.98,0,36,0S16.13.43,6.35,1.25Z"/><path class="ji" d="m6.38,1.25c-2.37.19-3.8,2.71-2.75,4.83l13.34,27.46,17.18,35.22c.75,1.57,2.94,1.57,3.7,0l17.18-35.22,13.34-27.46c1.05-2.13-.38-4.64-2.75-4.83C55.85.43,45.97,0,36,0S16.15.43,6.38,1.25Z"/><path class="bx" d="m6.41,1.25c-2.37.19-3.81,2.71-2.76,4.84l13.33,27.42,17.17,35.19c.75,1.56,2.93,1.56,3.69,0l17.17-35.19,13.33-27.42c1.05-2.13-.38-4.65-2.76-4.84C55.83.43,45.96,0,36,0S16.17.43,6.41,1.25Z"/><path class="lt" d="m6.44,1.24c-2.38.19-3.82,2.71-2.76,4.85l13.32,27.39,17.16,35.16c.75,1.56,2.93,1.56,3.67,0l17.16-35.16,13.32-27.39c1.05-2.13-.38-4.65-2.76-4.85C55.81.43,45.95,0,36,0S16.19.43,6.44,1.24Z"/><path class="lb" d="m6.47,1.24c-2.38.19-3.82,2.72-2.76,4.85l13.3,27.35,17.16,35.13c.75,1.55,2.92,1.55,3.66,0l17.16-35.13,13.3-27.35c1.06-2.13-.38-4.66-2.76-4.85C55.79.43,45.94,0,36,0S16.21.43,6.47,1.24Z"/><path class="cm" d="m6.5,1.24c-2.38.19-3.83,2.72-2.77,4.86l13.29,27.31,17.15,35.1c.75,1.55,2.91,1.55,3.65,0l17.15-35.1,13.29-27.31c1.06-2.14-.38-4.66-2.77-4.86C55.77.43,45.93,0,36,0S16.23.43,6.5,1.24Z"/><path class="dp" d="m6.53,1.24c-2.39.19-3.83,2.72-2.77,4.86l13.27,27.27,17.14,35.07c.74,1.54,2.9,1.54,3.64,0l17.14-35.07,13.27-27.27c1.06-2.14-.38-4.67-2.77-4.86C55.75.43,45.92,0,36,0S16.25.43,6.53,1.24Z"/><path class="jb" d="m6.56,1.24c-2.39.19-3.84,2.73-2.78,4.87l13.26,27.23,17.14,35.04c.74,1.54,2.89,1.54,3.63,0l17.13-35.04,13.26-27.23c1.06-2.14-.38-4.67-2.78-4.87C55.73.43,45.91,0,36,0S16.27.43,6.56,1.24Z"/><path class="jh" d="m6.59,1.23c-2.39.19-3.84,2.73-2.78,4.87l13.25,27.19,17.13,35.02c.74,1.53,2.88,1.53,3.62,0l17.13-35.02,13.25-27.19c1.06-2.14-.39-4.68-2.78-4.87C55.71.43,45.9,0,36,0S16.29.43,6.59,1.23Z"/><path class="jg" d="m6.62,1.23c-2.4.19-3.85,2.73-2.78,4.88l13.23,27.15,17.12,34.99c.74,1.53,2.87,1.53,3.61,0l17.12-34.99,13.23-27.15c1.06-2.15-.39-4.68-2.78-4.88C55.69.43,45.89,0,36,0S16.31.43,6.62,1.23Z"/><path class="jd" d="m6.65,1.23c-2.4.19-3.85,2.73-2.79,4.88l13.22,27.11,17.11,34.96c.74,1.53,2.87,1.53,3.6,0l17.11-34.96,13.22-27.11c1.07-2.15-.39-4.69-2.79-4.88C55.67.43,45.88,0,36,0S16.33.43,6.65,1.23Z"/><path class="cp" d="m6.68,1.23c-2.41.19-3.86,2.74-2.79,4.89l13.21,27.07,17.11,34.93c.73,1.52,2.86,1.52,3.59,0l17.11-34.93,13.21-27.07c1.07-2.15-.39-4.7-2.79-4.89C55.65.42,45.87,0,36,0S16.35.42,6.68,1.23Z"/><path class="ch" d="m6.71,1.23c-2.41.19-3.86,2.74-2.8,4.89l13.19,27.04,17.1,34.9c.73,1.52,2.85,1.52,3.58,0l17.1-34.9,13.19-27.04c1.07-2.15-.39-4.7-2.8-4.9C55.63.42,45.86,0,36,0S16.37.42,6.71,1.23Z"/><path class="dn" d="m6.74,1.22c-2.41.19-3.87,2.74-2.8,4.9l13.18,27,17.09,34.87c.73,1.51,2.84,1.51,3.57,0l17.09-34.87,13.18-27c1.07-2.16-.39-4.71-2.8-4.9C55.61.42,45.85,0,36,0S16.39.42,6.74,1.22Z"/><path class="dl" d="m6.77,1.22c-2.42.19-3.88,2.75-2.8,4.91l13.17,26.96,17.08,34.84c.73,1.51,2.83,1.51,3.56,0l17.08-34.84,13.17-26.96c1.07-2.16-.39-4.71-2.8-4.91C55.59.42,45.84,0,36,0S16.42.42,6.77,1.22Z"/><path class="dm" d="m6.8,1.22c-2.42.19-3.88,2.75-2.81,4.91l13.15,26.92,17.08,34.81c.73,1.5,2.82,1.5,3.55,0l17.08-34.81,13.15-26.92c1.07-2.16-.39-4.72-2.81-4.91C55.57.42,45.83,0,36,0S16.44.42,6.8,1.22Z"/><path class="cz" d="m6.83,1.22c-2.42.19-3.89,2.75-2.81,4.92l13.14,26.88,17.07,34.78c.72,1.5,2.82,1.5,3.54,0l17.07-34.78,13.14-26.88c1.08-2.16-.39-4.72-2.81-4.92C55.54.42,45.82,0,36,0S16.46.42,6.83,1.22Z"/><path class="cx" d="m6.86,1.21c-2.43.19-3.89,2.76-2.81,4.92l13.12,26.84,17.06,34.75c.72,1.49,2.81,1.49,3.53,0l17.06-34.75,13.13-26.84c1.08-2.17-.39-4.73-2.81-4.92C55.52.42,45.81,0,36,0S16.48.42,6.86,1.21Z"/><path class="bs" d="m6.89,1.21c-2.43.19-3.9,2.76-2.82,4.93l13.11,26.8,17.05,34.72c.72,1.49,2.8,1.49,3.52,0l17.05-34.72,13.11-26.8c1.08-2.17-.39-4.73-2.82-4.93C55.5.42,45.8,0,36,0S16.5.42,6.89,1.21Z"/><path class="cl" d="m6.92,1.21c-2.43.19-3.9,2.76-2.82,4.93l13.1,26.76,17.05,34.7c.72,1.48,2.79,1.48,3.51,0l17.05-34.7,13.1-26.76c1.08-2.17-.39-4.74-2.82-4.93C55.48.42,45.79,0,36,0S16.52.42,6.92,1.21Z"/><path class="do" d="m6.95,1.21c-2.44.2-3.91,2.77-2.83,4.94l13.08,26.73,17.04,34.67c.72,1.48,2.78,1.48,3.5,0l17.04-34.67,13.08-26.73c1.08-2.17-.39-4.74-2.83-4.94C55.46.42,45.78,0,36,0S16.54.42,6.95,1.21Z"/><path class="iu" d="m6.98,1.21c-2.44.2-3.91,2.77-2.83,4.94l13.07,26.69,17.03,34.64c.71,1.47,2.77,1.47,3.49,0l17.03-34.64,13.07-26.69c1.08-2.18-.39-4.75-2.83-4.94C55.44.42,45.77,0,36,0S16.56.42,6.98,1.21Z"/><path class="iy" d="m7.01,1.2c-2.44.2-3.92,2.77-2.83,4.95l13.06,26.65,17.03,34.61c.71,1.47,2.77,1.47,3.48,0l17.02-34.61,13.06-26.65c1.09-2.18-.39-4.76-2.83-4.95C55.42.42,45.76,0,36,0S16.58.42,7.01,1.2Z"/><path class="cb" d="m7.04,1.2c-2.45.2-3.92,2.77-2.84,4.96l13.04,26.61,17.02,34.58c.71,1.46,2.76,1.46,3.47,0l17.02-34.58,13.04-26.61c1.09-2.18-.39-4.76-2.84-4.96C55.4.42,45.75,0,36,0S16.6.42,7.04,1.2Z"/><path class="cf" d="m7.07,1.2c-2.45.2-3.93,2.78-2.84,4.96l13.03,26.57,17.01,34.55c.71,1.46,2.75,1.46,3.46,0l17.01-34.55,13.03-26.57c1.09-2.18-.39-4.77-2.84-4.96C55.38.41,45.74,0,36,0S16.62.41,7.07,1.2Z"/><path class="ce" d="m7.1,1.2c-2.45.2-3.94,2.78-2.85,4.97l13.02,26.53,17,34.52c.71,1.45,2.74,1.45,3.45,0l17-34.52,13.02-26.53c1.09-2.19-.39-4.77-2.85-4.97C55.36.41,45.73,0,36,0S16.64.41,7.1,1.2Z"/><path class="cd" d="m7.13,1.19c-2.46.2-3.94,2.78-2.85,4.97l13,26.49,17,34.49c.7,1.45,2.73,1.45,3.43,0l17-34.49,13-26.49c1.09-2.19-.39-4.78-2.85-4.97C55.34.41,45.72,0,36,0S16.66.41,7.13,1.19Z"/><path class="jc" d="m7.16,1.19c-2.46.2-3.95,2.79-2.85,4.98l12.99,26.45,16.99,34.46c.7,1.44,2.72,1.44,3.42,0l16.99-34.46,12.99-26.45c1.09-2.19-.39-4.78-2.85-4.98C55.32.41,45.71,0,36,0S16.68.41,7.16,1.19Z"/><path class="ir" d="m7.19,1.19c-2.46.2-3.95,2.79-2.86,4.98l12.97,26.41,16.98,34.43c.7,1.44,2.71,1.44,3.41,0l16.98-34.43,12.98-26.41c1.09-2.19-.39-4.79-2.86-4.98C55.3.41,45.7,0,36,0S16.7.41,7.19,1.19Z"/><path class="ci" d="m7.22,1.19c-2.47.2-3.96,2.79-2.86,4.99l12.96,26.38,16.97,34.4c.7,1.43,2.71,1.43,3.4,0l16.97-34.4,12.96-26.38c1.1-2.2-.4-4.79-2.86-4.99C55.28.41,45.69,0,36,0S16.72.41,7.22,1.19Z"/><path class="ct" d="m7.25,1.19c-2.47.2-3.96,2.8-2.86,4.99l12.95,26.34,16.97,34.37c.7,1.43,2.7,1.43,3.39,0l16.97-34.37,12.95-26.34c1.1-2.2-.4-4.8-2.86-4.99C55.26.41,45.68,0,36,0S16.74.41,7.25,1.19Z"/><path class="cu" d="m7.28,1.18c-2.47.2-3.97,2.8-2.87,5l12.93,26.3,16.96,34.35c.69,1.43,2.69,1.43,3.38,0l16.96-34.35,12.93-26.3c1.1-2.2-.4-4.8-2.87-5C55.24.41,45.67,0,36,0S16.76.41,7.28,1.18Z"/><path class="ck" d="m7.31,1.18c-2.48.2-3.97,2.8-2.87,5.01l12.92,26.26,16.95,34.32c.69,1.42,2.68,1.42,3.37,0l16.95-34.32,12.92-26.26c1.1-2.2-.4-4.81-2.87-5.01C55.22.41,45.66,0,36,0S16.78.41,7.31,1.18Z"/><path class="cn" d="m7.34,1.18c-2.48.2-3.98,2.81-2.88,5.01l12.91,26.22,16.94,34.29c.69,1.42,2.67,1.42,3.36,0l16.94-34.29,12.91-26.22c1.1-2.21-.4-4.81-2.88-5.01C55.2.41,45.65,0,36,0S16.8.41,7.34,1.18Z"/><path class="cj" d="m7.37,1.18c-2.48.2-3.98,2.81-2.88,5.02l12.89,26.18,16.94,34.26c.69,1.41,2.66,1.41,3.35,0l16.94-34.26,12.89-26.18c1.1-2.21-.4-4.82-2.88-5.02C55.18.41,45.64,0,36,0S16.82.41,7.37,1.18Z"/><path class="ix" d="m7.4,1.18c-2.49.2-3.99,2.81-2.88,5.02l12.88,26.14,16.93,34.23c.68,1.41,2.66,1.41,3.34,0l16.93-34.23,12.88-26.14c1.11-2.21-.4-4.83-2.88-5.02C55.16.41,45.63,0,36,0S16.84.41,7.4,1.18Z"/><path class="iq" d="m7.43,1.17c-2.49.2-4,2.81-2.89,5.03l12.87,26.1,16.92,34.2c.68,1.4,2.65,1.4,3.33,0l16.92-34.2,12.87-26.1c1.11-2.21-.4-4.83-2.89-5.03C55.14.41,45.62,0,36,0S16.86.41,7.43,1.17Z"/><path class="ef" d="m7.46,1.17c-2.49.2-4,2.82-2.89,5.03l12.85,26.06,16.91,34.17c.68,1.4,2.64,1.4,3.32,0l16.91-34.17,12.85-26.06c1.11-2.22-.4-4.84-2.89-5.03C55.12.4,45.61,0,36,0S16.88.4,7.46,1.17Z"/><path class="eb" d="m7.49,1.17c-2.5.2-4.01,2.82-2.9,5.04l12.84,26.03,16.91,34.14c.68,1.39,2.63,1.39,3.31,0l16.91-34.14,12.84-26.03c1.11-2.22-.4-4.84-2.9-5.04C55.1.4,45.6,0,36,0S16.9.4,7.49,1.17Z"/><path class="du" d="m7.52,1.17c-2.5.2-4.01,2.82-2.9,5.04l12.82,25.99,16.9,34.11c.68,1.39,2.62,1.39,3.3,0l16.9-34.11,12.83-25.99c1.11-2.22-.4-4.85-2.9-5.04C55.08.4,45.59,0,36,0S16.92.4,7.52,1.17Z"/><path class="dy" d="m7.55,1.16c-2.5.2-4.02,2.83-2.9,5.05l12.81,25.95,16.89,34.08c.67,1.38,2.61,1.38,3.29,0l16.89-34.08,12.81-25.95c1.11-2.22-.4-4.85-2.9-5.05C55.06.4,45.58,0,36,0S16.94.4,7.55,1.16Z"/><path class="fp" d="m7.58,1.16c-2.51.2-4.02,2.83-2.91,5.06l12.8,25.91,16.89,34.05c.67,1.38,2.61,1.38,3.28,0l16.89-34.05,12.8-25.91c1.12-2.23-.4-4.86-2.91-5.06C55.04.4,45.57,0,36,0S16.96.4,7.58,1.16Z"/><path class="dt" d="m7.61,1.16c-2.51.2-4.03,2.83-2.91,5.06l12.78,25.87,16.88,34.03c.67,1.37,2.6,1.37,3.27,0l16.88-34.03,12.78-25.87c1.12-2.23-.4-4.86-2.91-5.06C55.02.4,45.56,0,36,0S16.98.4,7.61,1.16Z"/><path class="dw" d="m7.64,1.16c-2.51.2-4.03,2.84-2.91,5.07l12.77,25.83,16.87,34c.67,1.37,2.59,1.37,3.26,0l16.87-34,12.77-25.83c1.12-2.23-.4-4.87-2.91-5.07C55,.4,45.55,0,36,0S17,.4,7.64,1.16Z"/><path class="ej" d="m7.67,1.16c-2.52.2-4.04,2.84-2.92,5.07l12.76,25.79,16.86,33.97c.67,1.36,2.58,1.36,3.25,0l16.86-33.97,12.76-25.79c1.12-2.23-.4-4.87-2.92-5.07C54.98.4,45.54,0,36,0S17.02.4,7.67,1.16Z"/><path class="ds" d="m7.7,1.15c-2.52.2-4.04,2.84-2.92,5.08l12.74,25.75,16.86,33.94c.66,1.36,2.57,1.36,3.24,0l16.86-33.94,12.74-25.75c1.12-2.24-.4-4.88-2.92-5.08C54.96.4,45.53,0,36,0S17.04.4,7.7,1.15Z"/><path class="fh" d="m7.73,1.15c-2.52.2-4.05,2.85-2.93,5.08l12.73,25.72,16.85,33.91c.66,1.35,2.56,1.35,3.23,0l16.85-33.91,12.73-25.72c1.12-2.24-.4-4.88-2.93-5.08C54.94.4,45.52,0,36,0S17.06.4,7.73,1.15Z"/><path class="ed" d="m7.76,1.15c-2.53.2-4.06,2.85-2.93,5.09l12.72,25.68,16.84,33.88c.66,1.35,2.56,1.35,3.22,0l16.84-33.88,12.72-25.68c1.13-2.24-.4-4.89-2.93-5.09C54.92.4,45.51,0,36,0S17.08.4,7.76,1.15Z"/><path class="ff" d="m7.79,1.15c-2.53.2-4.06,2.85-2.93,5.09l12.7,25.64,16.83,33.85c.66,1.34,2.55,1.34,3.21,0l16.83-33.85,12.7-25.64c1.13-2.24-.4-4.9-2.93-5.09C54.9.4,45.5,0,36,0S17.1.4,7.79,1.15Z"/><path class="dz" d="m7.82,1.14c-2.53.2-4.07,2.85-2.94,5.1l12.69,25.6,16.83,33.82c.66,1.34,2.54,1.34,3.19,0l16.83-33.82,12.69-25.6c1.13-2.25-.4-4.9-2.94-5.1C54.88.4,45.49,0,36,0S17.12.4,7.82,1.14Z"/><path class="dv" d="m7.85,1.14c-2.54.2-4.07,2.86-2.94,5.11l12.67,25.56,16.82,33.79c.65,1.33,2.53,1.33,3.18,0l16.82-33.79,12.68-25.56c1.13-2.25-.4-4.91-2.94-5.11C54.86.4,45.48,0,36,0S17.14.4,7.85,1.14Z"/><path class="ec" d="m7.88,1.14c-2.54.2-4.08,2.86-2.95,5.11l12.66,25.52,16.81,33.76c.65,1.33,2.52,1.33,3.17,0l16.81-33.76,12.66-25.52c1.13-2.25-.41-4.91-2.95-5.11C54.84.39,45.47,0,36,0S17.16.39,7.88,1.14Z"/><path class="cy" d="m7.91,1.14c-2.54.2-4.08,2.86-2.95,5.12l12.65,25.48,16.8,33.73c.65,1.33,2.51,1.33,3.16,0l16.8-33.73,12.65-25.48c1.13-2.25-.41-4.92-2.95-5.12C54.82.39,45.46,0,36,0S17.18.39,7.91,1.14Z"/><path class="co" d="m7.94,1.14c-2.55.2-4.09,2.87-2.95,5.12l12.63,25.44,16.8,33.71c.65,1.32,2.5,1.32,3.15,0l16.8-33.71,12.63-25.44c1.14-2.26-.41-4.92-2.95-5.12C54.8.39,45.45,0,36,0S17.2.39,7.94,1.14Z"/><path class="cq" d="m7.97,1.13c-2.55.2-4.09,2.87-2.96,5.13l12.62,25.4,16.79,33.68c.65,1.32,2.5,1.32,3.14,0l16.79-33.68,12.62-25.4c1.14-2.26-.41-4.93-2.96-5.13C54.78.39,45.44,0,36,0S17.22.39,7.97,1.13Z"/><path class="db" d="m8,1.13c-2.55.2-4.1,2.87-2.96,5.13l12.61,25.37,16.78,33.65c.64,1.31,2.49,1.31,3.13,0l16.78-33.65,12.61-25.37c1.14-2.26-.41-4.93-2.96-5.13C54.76.39,45.43,0,36,0S17.24.39,8,1.13Z"/><path class="cr" d="m8.04,1.13c-2.56.2-4.1,2.88-2.96,5.14l12.59,25.33,16.78,33.62c.64,1.31,2.48,1.31,3.12,0l16.78-33.62,12.59-25.33c1.14-2.26-.41-4.94-2.96-5.14C54.74.39,45.42,0,36,0S17.26.39,8.04,1.13Z"/><path class="cs" d="m8.07,1.13c-2.56.2-4.11,2.88-2.97,5.14l12.58,25.29,16.77,33.59c.64,1.3,2.47,1.3,3.11,0l16.77-33.59,12.58-25.29c1.14-2.27-.41-4.94-2.97-5.14C54.72.39,45.4,0,36,0S17.28.39,8.07,1.13Z"/><path class="cv" d="m8.1,1.13c-2.56.2-4.12,2.88-2.97,5.15l12.57,25.25,16.76,33.56c.64,1.3,2.46,1.3,3.1,0l16.76-33.56,12.57-25.25c1.14-2.27-.41-4.95-2.97-5.15C54.7.39,45.39,0,36,0S17.3.39,8.1,1.13Z"/><path class="de" d="m8.13,1.12c-2.57.2-4.12,2.88-2.98,5.16l12.55,25.21,16.75,33.53c.64,1.29,2.45,1.29,3.09,0l16.75-33.53,12.55-25.21c1.15-2.27-.41-4.95-2.98-5.16C54.68.39,45.38,0,36,0S17.32.39,8.13,1.12Z"/><path class="ee" d="m8.16,1.12c-2.57.2-4.13,2.89-2.98,5.16l12.54,25.17,16.75,33.5c.63,1.29,2.45,1.29,3.08,0l16.75-33.5,12.54-25.17c1.15-2.27-.41-4.96-2.98-5.16C54.66.39,45.37,0,36,0S17.34.39,8.16,1.12Z"/><path class="dx" d="m8.19,1.12c-2.57.2-4.13,2.89-2.98,5.17l12.52,25.13,16.74,33.47c.63,1.28,2.44,1.28,3.07,0l16.74-33.47,12.53-25.13c1.15-2.28-.41-4.97-2.98-5.17C54.64.39,45.36,0,36,0S17.36.39,8.19,1.12Z"/><path class="eh" d="m8.22,1.12c-2.58.2-4.14,2.89-2.99,5.17l12.51,25.09,16.73,33.44c.63,1.28,2.43,1.28,3.06,0l16.73-33.44,12.51-25.09c1.15-2.28-.41-4.97-2.99-5.17C54.62.39,45.35,0,36,0S17.38.39,8.22,1.12Z"/><path class="ek" d="m8.25,1.11c-2.58.2-4.14,2.9-2.99,5.18l12.5,25.06,16.72,33.41c.63,1.27,2.42,1.27,3.05,0l16.72-33.41,12.5-25.06c1.15-2.28-.41-4.98-2.99-5.18C54.6.39,45.34,0,36,0S17.4.39,8.25,1.11Z"/><path class="eg" d="m8.28,1.11c-2.58.2-4.15,2.9-2.99,5.18l12.48,25.02,16.72,33.38c.63,1.27,2.41,1.27,3.04,0l16.72-33.38,12.48-25.02c1.15-2.28-.41-4.98-2.99-5.18C54.58.38,45.33,0,36,0S17.42.38,8.28,1.11Z"/><path class="ei" d="m8.31,1.11c-2.59.2-4.15,2.9-3,5.19l12.47,24.98,16.71,33.36c.62,1.26,2.4,1.26,3.03,0l16.71-33.36,12.47-24.98c1.16-2.28-.41-4.99-3-5.19C54.56.38,45.32,0,36,0S17.44.38,8.31,1.11Z"/><path class="da" d="m8.34,1.11c-2.59.2-4.16,2.91-3,5.19l12.46,24.94,16.7,33.33c.62,1.26,2.4,1.26,3.02,0l16.7-33.33,12.46-24.94c1.16-2.29-.41-4.99-3-5.19C54.54.38,45.31,0,36,0S17.46.38,8.34,1.11Z"/><path class="cw" d="m8.37,1.11c-2.59.2-4.16,2.91-3.01,5.2l12.44,24.9,16.69,33.3c.62,1.25,2.39,1.25,3.01,0l16.69-33.3,12.44-24.9c1.16-2.29-.41-5-3.01-5.2C54.52.38,45.3,0,36,0S17.48.38,8.37,1.11Z"/><path class="ew" d="m8.4,1.1c-2.6.2-4.17,2.91-3.01,5.2l12.43,24.86,16.69,33.27c.62,1.25,2.38,1.25,3,0l16.69-33.27,12.43-24.86c1.16-2.29-.41-5-3.01-5.2C54.5.38,45.29,0,36,0S17.5.38,8.4,1.1Z"/><path class="ex" d="m8.43,1.1c-2.6.2-4.18,2.92-3.01,5.21l12.42,24.82,16.68,33.24c.62,1.24,2.37,1.24,2.99,0l16.68-33.24,12.42-24.82c1.16-2.29-.41-5.01-3.01-5.21C54.48.38,45.28,0,36,0S17.52.38,8.43,1.1Z"/><path class="fj" d="m8.46,1.1c-2.6.2-4.18,2.92-3.02,5.22l12.4,24.78,16.67,33.21c.61,1.24,2.36,1.24,2.98,0l16.67-33.21,12.4-24.78c1.16-2.3-.41-5.01-3.02-5.22C54.46.38,45.27,0,36,0S17.54.38,8.46,1.1Z"/><path class="fk" d="m8.49,1.1c-2.61.2-4.19,2.92-3.02,5.22l12.39,24.74,16.67,33.18c.61,1.23,2.35,1.23,2.97,0l16.66-33.18,12.39-24.74c1.16-2.3-.41-5.02-3.02-5.22C54.44.38,45.26,0,36,0S17.56.38,8.49,1.1Z"/><path class="eq" d="m8.52,1.09c-2.61.2-4.19,2.92-3.03,5.23l12.37,24.71,16.66,33.15c.61,1.23,2.34,1.23,2.95,0l16.66-33.15,12.38-24.71c1.17-2.3-.41-5.03-3.03-5.23C54.42.38,45.25,0,36,0S17.58.38,8.52,1.09Z"/><path class="fm" d="m8.55,1.09c-2.61.2-4.2,2.93-3.03,5.23l12.36,24.67,16.65,33.12c.61,1.23,2.34,1.23,2.94,0l16.65-33.12,12.36-24.67c1.17-2.3-.42-5.03-3.03-5.23C54.4.38,45.24,0,36,0S17.6.38,8.55,1.09Z"/><path class="en" d="m8.58,1.09c-2.62.2-4.2,2.93-3.03,5.24l12.35,24.63,16.64,33.09c.61,1.22,2.33,1.22,2.93,0l16.64-33.09,12.35-24.63c1.17-2.31-.42-5.04-3.03-5.24C54.38.38,45.23,0,36,0S17.62.38,8.58,1.09Z"/><path class="em" d="m8.61,1.09c-2.62.2-4.21,2.93-3.04,5.24l12.33,24.59,16.64,33.06c.6,1.22,2.32,1.22,2.92,0l16.64-33.06,12.33-24.59c1.17-2.31-.42-5.04-3.04-5.24C54.36.38,45.22,0,36,0S17.64.38,8.61,1.09Z"/><path class="et" d="m8.64,1.09c-2.62.2-4.21,2.94-3.04,5.25l12.32,24.55,16.63,33.04c.6,1.21,2.31,1.21,2.91,0l16.63-33.04,12.32-24.55c1.17-2.31-.42-5.05-3.04-5.25C54.34.38,45.21,0,36,0S17.66.38,8.64,1.09Z"/><path class="el" d="m8.67,1.08c-2.63.2-4.22,2.94-3.04,5.25l12.31,24.51,16.62,33.01c.6,1.21,2.3,1.21,2.9,0l16.62-33.01,12.31-24.51c1.17-2.31-.42-5.05-3.04-5.25C54.32.37,45.2,0,36,0S17.69.37,8.67,1.08Z"/><path class="dr" d="m8.7,1.08c-2.63.2-4.22,2.94-3.05,5.26l12.29,24.47,16.61,32.98c.6,1.2,2.29,1.2,2.89,0l16.61-32.98,12.29-24.47c1.18-2.32-.42-5.06-3.05-5.26C54.3.37,45.19,0,36,0S17.71.37,8.7,1.08Z"/><path class="dq" d="m8.73,1.08c-2.63.2-4.23,2.95-3.05,5.27l12.28,24.43,16.61,32.95c.6,1.2,2.29,1.2,2.88,0l16.61-32.95,12.28-24.43c1.18-2.32-.42-5.06-3.05-5.27C54.27.37,45.18,0,36,0S17.73.37,8.73,1.08Z"/><path class="ep" d="m8.76,1.08c-2.64.2-4.24,2.95-3.06,5.27l12.27,24.4,16.6,32.92c.59,1.19,2.28,1.19,2.87,0l16.6-32.92,12.27-24.4c1.18-2.32-.42-5.07-3.06-5.27C54.25.37,45.17,0,36,0S17.75.37,8.76,1.08Z"/><path class="eo" d="m8.79,1.07c-2.64.2-4.24,2.95-3.06,5.28l12.25,24.36,16.59,32.89c.59,1.19,2.27,1.19,2.86,0l16.59-32.89,12.25-24.36c1.18-2.32-.42-5.07-3.06-5.28C54.23.37,45.16,0,36,0S17.77.37,8.79,1.07Z"/><path class="ev" d="m8.82,1.07c-2.64.2-4.25,2.96-3.06,5.28l12.24,24.32,16.58,32.86c.59,1.18,2.26,1.18,2.85,0l16.58-32.86,12.24-24.32c1.18-2.33-.42-5.08-3.06-5.28C54.21.37,45.15,0,36,0S17.79.37,8.82,1.07Z"/><path class="eu" d="m8.85,1.07c-2.65.2-4.25,2.96-3.07,5.29l12.22,24.28,16.58,32.83c.59,1.18,2.25,1.18,2.84,0l16.58-32.83,12.23-24.28c1.18-2.33-.42-5.08-3.07-5.29C54.19.37,45.14,0,36,0S17.81.37,8.85,1.07Z"/><path class="fb" d="m8.88,1.07c-2.65.2-4.26,2.96-3.07,5.29l12.21,24.24,16.57,32.8c.59,1.17,2.24,1.17,2.83,0l16.57-32.8,12.21-24.24c1.19-2.33-.42-5.09-3.07-5.29C54.17.37,45.13,0,36,0S17.83.37,8.88,1.07Z"/><path class="fd" d="m8.91,1.07c-2.65.2-4.26,2.96-3.08,5.3l12.2,24.2,16.56,32.77c.58,1.17,2.24,1.17,2.82,0l16.56-32.77,12.2-24.2c1.19-2.33-.42-5.1-3.08-5.3C54.15.37,45.12,0,36,0S17.85.37,8.91,1.07Z"/><path class="fn" d="m8.94,1.06c-2.66.2-4.27,2.97-3.08,5.3l12.18,24.16,16.56,32.74c.58,1.16,2.23,1.16,2.81,0l16.55-32.74,12.18-24.16c1.19-2.34-.42-5.1-3.08-5.3C54.13.37,45.11,0,36,0S17.87.37,8.94,1.06Z"/><path class="ey" d="m8.97,1.06c-2.66.2-4.27,2.97-3.08,5.31l12.17,24.12,16.55,32.72c.58,1.16,2.22,1.16,2.8,0l16.55-32.72,12.17-24.12c1.19-2.34-.42-5.11-3.08-5.31C54.11.37,45.1,0,36,0S17.89.37,8.97,1.06Z"/><path class="fi" d="m9,1.06c-2.66.2-4.28,2.97-3.09,5.32l12.16,24.08,16.54,32.69c.58,1.15,2.21,1.15,2.79,0l16.54-32.69,12.16-24.08c1.19-2.34-.42-5.11-3.09-5.32C54.09.37,45.09,0,36,0S17.91.37,9,1.06Z"/><path class="ea" d="m9.03,1.06c-2.67.2-4.28,2.98-3.09,5.32l12.14,24.05,16.53,32.66c.58,1.15,2.2,1.15,2.78,0l16.53-32.66,12.14-24.05c1.19-2.34-.42-5.12-3.09-5.32C54.07.37,45.08,0,36,0S17.93.37,9.03,1.06Z"/><path class="fe" d="m9.06,1.06c-2.67.2-4.29,2.98-3.09,5.33l12.13,24.01,16.53,32.63c.57,1.14,2.19,1.14,2.77,0l16.53-32.63,12.13-24.01c1.2-2.35-.42-5.12-3.09-5.33C54.05.36,45.07,0,36,0S17.95.36,9.06,1.06Z"/><path class="fc" d="m9.09,1.05c-2.67.2-4.3,2.98-3.1,5.33l12.12,23.97,16.52,32.6c.57,1.14,2.19,1.14,2.76,0l16.52-32.6,12.12-23.97c1.2-2.35-.42-5.13-3.1-5.33C54.03.36,45.06,0,36,0S17.97.36,9.09,1.05Z"/><path class="fa" d="m9.12,1.05c-2.68.2-4.3,2.99-3.1,5.34l12.1,23.93,16.51,32.57c.57,1.13,2.18,1.13,2.75,0l16.51-32.57,12.1-23.93c1.2-2.35-.42-5.13-3.1-5.34C54.01.36,45.05,0,36,0S17.99.36,9.12,1.05Z"/><path class="ez" d="m9.15,1.05c-2.68.2-4.31,2.99-3.11,5.34l12.09,23.89,16.5,32.54c.57,1.13,2.17,1.13,2.74,0l16.5-32.54,12.09-23.89c1.2-2.35-.42-5.14-3.11-5.34C53.99.36,45.04,0,36,0S18.01.36,9.15,1.05Z"/><path class="es" d="m9.18,1.05c-2.68.2-4.31,2.99-3.11,5.35l12.07,23.85,16.5,32.51c.57,1.13,2.16,1.13,2.73,0l16.5-32.51,12.08-23.85c1.2-2.36-.43-5.14-3.11-5.35C53.97.36,45.03,0,36,0S18.03.36,9.18,1.05Z"/><path class="er" d="m9.21,1.04c-2.69.2-4.32,3-3.11,5.35l12.06,23.81,16.49,32.48c.56,1.12,2.15,1.12,2.71,0l16.49-32.48,12.06-23.81c1.2-2.36-.43-5.15-3.11-5.35C53.95.36,45.02,0,36,0S18.05.36,9.21,1.04Z"/><path class="fo" d="m9.24,1.04c-2.69.21-4.32,3-3.12,5.36l12.05,23.77,16.48,32.45c.56,1.12,2.14,1.12,2.7,0l16.48-32.45,12.05-23.77c1.21-2.36-.43-5.15-3.12-5.36C53.93.36,45.01,0,36,0S18.07.36,9.24,1.04Z"/><path class="fg" d="m9.27,1.04c-2.69.21-4.33,3-3.12,5.37l12.03,23.74,16.47,32.42c.56,1.11,2.13,1.11,2.69,0l16.47-32.42,12.03-23.74c1.21-2.36-.43-5.16-3.12-5.37C53.91.36,45,0,36,0S18.09.36,9.27,1.04Z"/><path class="fl" d="m9.3,1.04c-2.7.21-4.33,3-3.13,5.37l12.02,23.7,16.47,32.39c.56,1.11,2.13,1.11,2.68,0l16.47-32.39,12.02-23.7c1.21-2.37-.43-5.17-3.13-5.37C53.89.36,44.99,0,36,0S18.11.36,9.3,1.04Z"/><path class="bo" d="m9.33,1.04c-2.7.21-4.34,3.01-3.13,5.38l12.01,23.66,16.46,32.37c.56,1.1,2.12,1.1,2.67,0l16.46-32.37,12.01-23.66c1.21-2.37-.43-5.17-3.13-5.38C53.87.36,44.98,0,36,0S18.13.36,9.33,1.04Z"/><path class="be" d="m9.36,1.03c-2.71.21-4.35,3.01-3.13,5.38l11.99,23.62,16.45,32.34c.55,1.1,2.11,1.1,2.66,0l16.45-32.34,11.99-23.62c1.21-2.37-.43-5.18-3.13-5.38C53.85.36,44.97,0,36,0S18.15.36,9.36,1.03Z"/><path class="bq" d="m9.39,1.03c-2.71.21-4.35,3.01-3.14,5.39l11.98,23.58,16.44,32.31c.55,1.09,2.1,1.09,2.65,0l16.44-32.31,11.98-23.58c1.21-2.37-.43-5.18-3.14-5.39C53.83.36,44.96,0,36,0S18.17.36,9.39,1.03Z"/><path class="bn" d="m9.42,1.03c-2.71.21-4.36,3.02-3.14,5.39l11.97,23.54,16.44,32.28c.55,1.09,2.09,1.09,2.64,0l16.44-32.28,11.97-23.54c1.22-2.38-.43-5.19-3.14-5.39C53.81.36,44.95,0,36,0S18.19.36,9.42,1.03Z"/><path class="az" d="m9.45,1.03c-2.72.21-4.36,3.02-3.14,5.4l11.95,23.5,16.43,32.25c.55,1.08,2.08,1.08,2.63,0l16.43-32.25,11.95-23.5c1.22-2.38-.43-5.19-3.14-5.4C53.79.35,44.94,0,36,0S18.21.35,9.45,1.03Z"/><path class="bd" d="m9.48,1.02c-2.72.21-4.37,3.02-3.15,5.4l11.94,23.46,16.42,32.22c.55,1.08,2.08,1.08,2.62,0l16.42-32.22,11.94-23.46c1.22-2.38-.43-5.2-3.15-5.4C53.77.35,44.93,0,36,0S18.23.35,9.48,1.02Z"/><path class="bh" d="m9.51,1.02c-2.72.21-4.37,3.03-3.15,5.41l11.93,23.42,16.42,32.19c.54,1.07,2.07,1.07,2.61,0l16.42-32.19,11.93-23.42c1.22-2.38-.43-5.2-3.15-5.41C53.75.35,44.92,0,36,0S18.25.35,9.51,1.02Z"/><path class="ay" d="m9.54,1.02c-2.73.21-4.38,3.03-3.16,5.42l11.91,23.39,16.41,32.16c.54,1.07,2.06,1.07,2.6,0l16.41-32.16,11.91-23.39c1.22-2.39-.43-5.21-3.16-5.42C53.73.35,44.91,0,36,0S18.27.35,9.54,1.02Z"/><path class="ax" d="m9.57,1.02c-2.73.21-4.38,3.03-3.16,5.42l11.9,23.35,16.4,32.13c.54,1.06,2.05,1.06,2.59,0l16.4-32.13,11.9-23.35c1.22-2.39-.43-5.21-3.16-5.42C53.71.35,44.9,0,36,0S18.29.35,9.57,1.02Z"/><path class="av" d="m9.6,1.02c-2.73.21-4.39,3.04-3.16,5.43l11.88,23.31,16.39,32.1c.54,1.06,2.04,1.06,2.58,0l16.39-32.1,11.88-23.31c1.23-2.39-.43-5.22-3.16-5.43C53.69.35,44.89,0,36,0S18.31.35,9.6,1.02Z"/><path class="bj" d="m9.63,1.01c-2.74.21-4.39,3.04-3.17,5.43l11.87,23.27,16.39,32.07c.54,1.05,2.03,1.05,2.57,0l16.39-32.07,11.87-23.27c1.23-2.39-.43-5.23-3.17-5.43C53.67.35,44.88,0,36,0S18.33.35,9.63,1.01Z"/><path class="bf" d="m9.66,1.01c-2.74.21-4.4,3.04-3.17,5.44l11.86,23.23,16.38,32.05c.53,1.05,2.03,1.05,2.56,0l16.38-32.05,11.86-23.23c1.23-2.4-.43-5.23-3.17-5.44C53.65.35,44.87,0,36,0S18.35.35,9.66,1.01Z"/><path class="au" d="m9.69,1.01c-2.74.21-4.41,3.04-3.18,5.44l11.84,23.19,16.37,32.02c.53,1.04,2.02,1.04,2.55,0l16.37-32.02,11.84-23.19c1.23-2.4-.43-5.24-3.18-5.44C53.63.35,44.86,0,36,0S18.37.35,9.69,1.01Z"/><path class="bp" d="m9.72,1.01c-2.75.21-4.41,3.05-3.18,5.45l11.83,23.15,16.36,31.99c.53,1.04,2.01,1.04,2.54,0l16.36-31.99,11.83-23.15c1.23-2.4-.43-5.24-3.18-5.45C53.61.35,44.85,0,36,0S18.39.35,9.72,1.01Z"/><path class="aw" d="m9.75,1.01c-2.75.21-4.42,3.05-3.18,5.45l11.82,23.11,16.36,31.96c.53,1.03,2,1.03,2.53,0l16.36-31.96,11.82-23.11c1.23-2.4-.43-5.25-3.18-5.45C53.59.35,44.84,0,36,0S18.41.35,9.75,1.01Z"/><path class="bi" d="m9.78,1c-2.75.21-4.42,3.05-3.19,5.46l11.8,23.08,16.35,31.93c.52,1.03,1.99,1.03,2.52,0l16.35-31.93,11.8-23.08c1.23-2.41-.43-5.25-3.19-5.46C53.57.35,44.83,0,36,0S18.43.35,9.78,1Z"/><path class="ab" d="m9.81,1c-2.76.21-4.43,3.06-3.19,5.46l11.79,23.04,16.34,31.9c.52,1.03,1.98,1.03,2.51,0l16.34-31.9,11.79-23.04c1.24-2.41-.43-5.26-3.19-5.47C53.55.35,44.82,0,36,0S18.45.35,9.81,1Z"/><path class="y" d="m9.84,1c-2.76.21-4.43,3.06-3.19,5.47l11.78,23,16.33,31.87c.52,1.02,1.97,1.02,2.5,0l16.33-31.87,11.78-23c1.24-2.41-.44-5.26-3.19-5.47C53.53.34,44.81,0,36,0S18.47.34,9.84,1Z"/><path class="ba" d="m9.87,1c-2.76.21-4.44,3.06-3.2,5.48l11.76,22.96,16.33,31.84c.52,1.02,1.97,1.02,2.49,0l16.33-31.84,11.76-22.96c1.24-2.41-.44-5.27-3.2-5.48C53.51.34,44.8,0,36,0S18.49.34,9.87,1Z"/><path class="bb" d="m9.9.99c-2.77.21-4.44,3.07-3.2,5.48l11.75,22.92,16.32,31.81c.52,1.01,1.96,1.01,2.47,0l16.32-31.81,11.75-22.92c1.24-2.42-.44-5.27-3.2-5.48C53.49.34,44.79,0,36,0S18.51.34,9.9.99Z"/><path class="z" d="m9.93.99c-2.77.21-4.45,3.07-3.21,5.49l11.73,22.88,16.31,31.78c.51,1.01,1.95,1.01,2.46,0l16.31-31.78,11.73-22.88c1.24-2.42-.44-5.28-3.21-5.49C53.47.34,44.78,0,36,0S18.53.34,9.93.99Z"/><path class="aa" d="m9.96.99c-2.77.21-4.45,3.07-3.21,5.49l11.72,22.84,16.31,31.75c.51,1,1.94,1,2.45,0l16.3-31.75,11.72-22.84c1.24-2.42-.44-5.28-3.21-5.49C53.45.34,44.77,0,36,0S18.55.34,9.96.99Z"/><path class="ad" d="m9.99.99c-2.78.21-4.46,3.08-3.21,5.5l11.71,22.8,16.3,31.73c.51,1,1.93,1,2.44,0l16.3-31.73,11.71-22.8c1.25-2.42-.44-5.29-3.21-5.5C53.43.34,44.76,0,36,0S18.57.34,9.99.99Z"/><path class="ac" d="m10.02.99c-2.78.21-4.47,3.08-3.22,5.5l11.69,22.76,16.29,31.7c.51.99,1.92.99,2.43,0l16.29-31.7,11.69-22.76c1.25-2.43-.44-5.3-3.22-5.5C53.41.34,44.75,0,36,0S18.59.34,10.02.99Z"/><path class="bl" d="m10.05.98c-2.78.21-4.47,3.08-3.22,5.51l11.68,22.73,16.28,31.67c.51.99,1.92.99,2.42,0l16.28-31.67,11.68-22.73c1.25-2.43-.44-5.3-3.22-5.51C53.39.34,44.74,0,36,0S18.61.34,10.05.98Z"/><path class="bm" d="m10.08.98c-2.79.21-4.48,3.08-3.23,5.51l11.67,22.69,16.28,31.64c.5.98,1.91.98,2.41,0l16.28-31.64,11.67-22.69c1.25-2.43-.44-5.31-3.22-5.51C53.37.34,44.73,0,36,0S18.63.34,10.08.98Z"/><path class="bc" d="m10.11.98c-2.79.21-4.48,3.09-3.23,5.52l11.65,22.65,16.27,31.61c.5.98,1.9.98,2.4,0l16.27-31.61,11.65-22.65c1.25-2.43-.44-5.31-3.23-5.52C53.35.34,44.71,0,36,0S18.65.34,10.11.98Z"/><path class="br" d="m10.14.98c-2.79.21-4.49,3.09-3.23,5.53l11.64,22.61,16.26,31.58c.5.97,1.89.97,2.39,0l16.26-31.58,11.64-22.61c1.25-2.44-.44-5.32-3.23-5.53C53.33.34,44.7,0,36,0S18.67.34,10.14.98Z"/><path class="bk" d="m10.17.97c-2.8.21-4.49,3.09-3.24,5.53l11.63,22.57,16.25,31.55c.5.97,1.88.97,2.38,0l16.25-31.55,11.63-22.57c1.26-2.44-.44-5.32-3.24-5.53C53.31.34,44.69,0,36,0S18.69.34,10.17.97Z"/><path class="bg" d="m10.2.97c-2.8.21-4.5,3.1-3.24,5.54l11.61,22.53,16.25,31.52c.5.96,1.87.96,2.37,0l16.25-31.52,11.61-22.53c1.26-2.44-.44-5.33-3.24-5.54C53.29.34,44.68,0,36,0S18.71.34,10.2.97Z"/></mask><linearGradient id="c" x1="36" y1="0" x2="36" y2="63.55" gradientUnits="userSpaceOnUse"><stop offset="0" stop-color="#2a5ffa"/><stop offset="1" stop-color="#00136b"/></linearGradient></defs><g class="j"><path class="mb" d="m2.54,1.55C.6,1.73-.56,3.91.28,5.75l15.09,32.98,18.12,39.61c1.01,2.21,4.02,2.21,5.03,0l18.12-39.61,15.09-32.98c.84-1.84-.32-4.02-2.26-4.2C58.43.54,47.27,0,36,0S13.57.54,2.54,1.55Z"/><path class="lf" d="m2.65,1.55C.7,1.73-.47,3.92.38,5.77l15.04,32.89,18.06,39.49c1.02,2.23,4.04,2.23,5.05,0l18.06-39.49,15.04-32.89c.85-1.85-.32-4.04-2.27-4.22C58.35.54,47.24,0,36,0S13.65.54,2.65,1.55Z"/><path class="m" d="m2.76,1.54C.8,1.72-.38,3.92.47,5.79l14.99,32.79,18,39.37c1.02,2.24,4.05,2.24,5.08,0l18-39.37,14.99-32.79c.85-1.87-.33-4.07-2.29-4.25C58.28.53,47.2,0,36,0S13.72.53,2.76,1.54Z"/><path class="d" d="m2.87,1.54C.9,1.72-.29,3.93.57,5.81l14.94,32.69,17.94,39.26c1.03,2.25,4.07,2.25,5.1,0l17.94-39.25,14.94-32.69c.86-1.88-.33-4.09-2.3-4.27C58.21.53,47.16,0,36,0S13.79.53,2.87,1.54Z"/><path class="g" d="m2.98,1.53C1,1.71-.19,3.94.67,5.83l14.89,32.59,17.88,39.14c1.03,2.26,4.09,2.26,5.12,0l17.88-39.14,14.89-32.59c.86-1.89-.33-4.12-2.31-4.3C58.14.53,47.13,0,36,0S13.86.53,2.98,1.53Z"/><path class="q" d="m3.08,1.52C1.1,1.71-.1,3.95.77,5.85l14.84,32.5,17.82,39.02c1.04,2.28,4.11,2.28,5.15,0l17.82-39.02,14.84-32.5c.87-1.9-.33-4.15-2.32-4.33C58.06.53,47.09,0,36,0S13.94.53,3.08,1.52Z"/><path class="o" d="m3.19,1.52C1.19,1.7,0,3.96.86,5.87l14.79,32.4,17.76,38.9c1.04,2.29,4.13,2.29,5.17,0l17.76-38.9,14.79-32.4c.87-1.91-.33-4.17-2.33-4.35C57.99.53,47.05,0,36,0S14.01.53,3.19,1.52Z"/><path class="w" d="m3.3,1.51C1.29,1.7.08,3.97.96,5.89l14.74,32.3,17.7,38.79c1.05,2.3,4.14,2.3,5.19,0l17.7-38.79,14.74-32.3c.88-1.92-.33-4.2-2.34-4.38C57.92.52,47.01,0,36,0S14.08.52,3.3,1.51Z"/><path class="u" d="m3.41,1.51C1.39,1.69.18,3.98,1.06,5.91l14.69,32.21,17.64,38.67c1.05,2.31,4.16,2.31,5.21,0l17.64-38.67,14.69-32.21c.88-1.94-.33-4.22-2.35-4.41-10.75-.99-21.61-1.51-32.59-1.51S14.16.52,3.41,1.51Z"/><path class="s" d="m3.52,1.5C1.49,1.69.27,3.99,1.16,5.93l14.64,32.11,17.58,38.55c1.06,2.33,4.18,2.33,5.24,0l17.58-38.55,14.64-32.11c.89-1.95-.33-4.25-2.36-4.43C57.77.52,46.94,0,36,0S14.23.52,3.52,1.5Z"/><path class="gt" d="m3.63,1.5C1.59,1.68.36,4,1.25,5.95l14.59,32.01,17.52,38.43c1.06,2.34,4.2,2.34,5.26,0l17.52-38.43,14.59-32.01c.89-1.96-.34-4.27-2.37-4.46C57.7.52,46.9,0,36,0S14.3.52,3.63,1.5Z"/><path class="ht" d="m3.74,1.49C1.69,1.68.46,4,1.35,5.97l14.54,31.92,17.46,38.32c1.07,2.35,4.21,2.35,5.28,0l17.46-38.32,14.54-31.92c.9-1.97-.34-4.3-2.39-4.49C57.62.52,46.87,0,36,0S14.38.52,3.74,1.49Z"/><path class="gx" d="m3.85,1.48c-2.06.19-3.3,2.53-2.4,4.51l14.49,31.82,17.4,38.2c1.07,2.36,4.23,2.36,5.31,0l17.4-38.2,14.5-31.82c.9-1.98-.34-4.32-2.4-4.51C57.55.51,46.83,0,36,0S14.45.51,3.85,1.48Z"/><path class="gv" d="m3.96,1.48c-2.07.19-3.31,2.54-2.41,4.54l14.45,31.72,17.34,38.08c1.08,2.38,4.25,2.38,5.33,0l17.34-38.08,14.45-31.72c.91-1.99-.34-4.35-2.41-4.54C57.48.51,46.79,0,36,0S14.52.51,3.96,1.48Z"/><path class="il" d="m4.06,1.47c-2.08.19-3.33,2.56-2.42,4.56l14.4,31.63,17.28,37.96c1.08,2.39,4.27,2.39,5.35,0l17.28-37.96,14.4-31.63c.91-2.01-.34-4.38-2.42-4.56C57.41.51,46.76,0,36,0S14.6.51,4.06,1.47Z"/><path class="ij" d="m4.17,1.47c-2.09.19-3.35,2.57-2.43,4.59l14.35,31.53,17.22,37.85c1.09,2.4,4.29,2.4,5.37,0l17.22-37.85,14.35-31.53c.91-2.02-.34-4.4-2.43-4.59C57.33.51,46.72,0,36,0S14.67.51,4.17,1.47Z"/><path class="kp" d="m4.28,1.46c-2.1.19-3.36,2.59-2.44,4.62l14.3,31.43,17.16,37.73c1.09,2.41,4.3,2.41,5.4,0l17.16-37.73,14.3-31.43c.92-2.03-.34-4.43-2.44-4.62C57.26.51,46.68,0,36,0S14.74.51,4.28,1.46Z"/><path class="ky" d="m4.39,1.45c-2.11.19-3.38,2.6-2.45,4.64l14.25,31.34,17.1,37.61c1.1,2.43,4.32,2.43,5.42,0l17.1-37.61,14.25-31.34c.92-2.04-.35-4.45-2.45-4.64C57.19.5,46.65,0,36,0S14.81.5,4.39,1.45Z"/><path class="ke" d="m4.5,1.45c-2.12.19-3.39,2.62-2.46,4.67l14.2,31.24,17.04,37.5c1.1,2.44,4.34,2.44,5.44,0l17.04-37.5,14.2-31.24c.93-2.05-.35-4.48-2.46-4.67C57.11.5,46.61,0,36,0S14.89.5,4.5,1.45Z"/><path class="kn" d="m4.61,1.44c-2.13.19-3.41,2.63-2.48,4.7l14.15,31.14,16.99,37.38c1.11,2.45,4.36,2.45,5.47,0l16.98-37.38,14.15-31.14c.93-2.06-.35-4.5-2.48-4.7C57.04.5,46.57,0,36,0S14.96.5,4.61,1.44Z"/><path class="ku" d="m4.72,1.44c-2.14.19-3.43,2.65-2.49,4.72l14.1,31.04,16.93,37.26c1.11,2.46,4.37,2.46,5.49,0l16.93-37.26,14.1-31.04c.94-2.08-.35-4.53-2.49-4.72C56.97.5,46.54,0,36,0S15.03.5,4.72,1.44Z"/><path class="kg" d="m4.83,1.43c-2.15.19-3.44,2.66-2.5,4.75l14.05,30.95,16.87,37.14c1.12,2.47,4.39,2.47,5.51,0l16.87-37.14,14.05-30.95c.94-2.09-.35-4.55-2.5-4.75C56.89.5,46.5,0,36,0S15.11.5,4.83,1.43Z"/><path class="ib" d="m4.93,1.43c-2.16.19-3.46,2.68-2.51,4.77l14,30.85,16.81,37.03c1.12,2.49,4.41,2.49,5.53,0l16.81-37.03,14-30.85c.95-2.1-.35-4.58-2.51-4.77C56.82.49,46.46,0,36,0S15.18.49,4.93,1.43Z"/><path class="hz" d="m5.04,1.42c-2.17.2-3.47,2.69-2.52,4.8l13.95,30.75,16.75,36.91c1.13,2.5,4.43,2.5,5.56,0l16.75-36.91,13.95-30.75c.95-2.11-.35-4.61-2.52-4.8C56.75.49,46.43,0,36,0S15.25.49,5.04,1.42Z"/><path class="kb" d="m5.15,1.41c-2.18.2-3.49,2.7-2.53,4.83l13.9,30.66,16.69,36.79c1.13,2.51,4.45,2.51,5.58,0l16.69-36.79,13.9-30.66c.96-2.12-.35-4.63-2.53-4.83C56.67.49,46.39,0,36,0S15.33.49,5.15,1.41Z"/><path class="ly" d="m5.26,1.41c-2.19.2-3.51,2.72-2.54,4.85l13.85,30.56,16.63,36.67c1.14,2.52,4.46,2.52,5.6,0l16.63-36.67,13.85-30.56c.96-2.13-.36-4.66-2.54-4.85C56.6.49,46.35,0,36,0S15.4.49,5.26,1.41Z"/><path class="dk" d="m5.37,1.4c-2.2.2-3.52,2.73-2.55,4.88l13.8,30.46,16.57,36.56c1.14,2.54,4.48,2.54,5.63,0l16.57-36.56,13.8-30.46c.97-2.15-.36-4.68-2.55-4.88C56.53.49,46.32,0,36,0S15.47.49,5.37,1.4Z"/><path class="dg" d="m5.48,1.4c-2.21.2-3.54,2.75-2.56,4.91l13.75,30.37,16.51,36.44c1.15,2.55,4.5,2.55,5.65,0l16.51-36.44,13.76-30.37c.97-2.16-.36-4.71-2.56-4.91C56.46.48,46.28,0,36,0S15.54.48,5.48,1.4Z"/><path class="kl" d="m5.59,1.39c-2.22.2-3.55,2.76-2.58,4.93l13.71,30.27,16.45,36.32c1.15,2.56,4.52,2.56,5.67,0l16.45-36.32,13.71-30.27c.98-2.17-.36-4.73-2.58-4.93C56.38.48,46.24,0,36,0S15.62.48,5.59,1.39Z"/><path class="di" d="m5.7,1.38c-2.23.2-3.57,2.78-2.59,4.96l13.66,30.17,16.39,36.21c1.16,2.57,4.54,2.57,5.69,0l16.39-36.21,13.66-30.17c.98-2.18-.36-4.76-2.59-4.96C56.31.48,46.21,0,36,0S15.69.48,5.7,1.38Z"/><path class="la" d="m5.8,1.38c-2.24.2-3.59,2.79-2.6,4.99l13.61,30.08,16.33,36.09c1.16,2.59,4.55,2.59,5.72,0l16.33-36.09,13.61-30.08c.99-2.19-.36-4.78-2.6-4.99C56.24.48,46.17,0,36,0S15.76.48,5.8,1.38Z"/><path class="ld" d="m5.91,1.37c-2.25.2-3.6,2.81-2.61,5.01l13.56,29.98,16.27,35.97c1.17,2.6,4.57,2.6,5.74,0l16.27-35.97,13.56-29.98c.99-2.2-.36-4.81-2.61-5.01C56.16.48,46.13,0,36,0S15.84.48,5.91,1.37Z"/><path class="jz" d="m6.02,1.37c-2.26.2-3.62,2.82-2.62,5.04l13.51,29.88,16.21,35.85c1.17,2.61,4.59,2.61,5.76,0l16.21-35.85,13.51-29.88c1-2.22-.37-4.84-2.62-5.04C56.09.47,46.1,0,36,0S15.91.47,6.02,1.37Z"/><path class="ju" d="m6.13,1.36c-2.27.2-3.63,2.84-2.63,5.06l13.46,29.79,16.15,35.74c1.18,2.62,4.61,2.62,5.79,0l16.15-35.74,13.46-29.79c1-2.23-.37-4.86-2.63-5.06C56.02.47,46.06,0,36,0S15.98.47,6.13,1.36Z"/><path class="js" d="m6.24,1.36c-2.28.2-3.65,2.85-2.64,5.09l13.41,29.69,16.09,35.62c1.18,2.64,4.62,2.64,5.81,0l16.09-35.62,13.41-29.69c1.01-2.24-.37-4.89-2.64-5.09C55.94.47,46.02,0,36,0S16.06.47,6.24,1.36Z"/><path class="jx" d="m6.35,1.35c-2.29.2-3.67,2.87-2.65,5.12l13.36,29.59,16.03,35.5c1.19,2.65,4.64,2.65,5.83,0l16.03-35.5,13.36-29.59c1.01-2.25-.37-4.91-2.65-5.12C55.87.47,45.99,0,36,0S16.13.47,6.35,1.35Z"/><path class="jp" d="m6.46,1.34c-2.29.21-3.68,2.88-2.67,5.14l13.31,29.5,15.97,35.38c1.19,2.66,4.66,2.66,5.85,0l15.97-35.38,13.31-29.5c1.02-2.26-.37-4.94-2.67-5.14C55.8.46,45.95,0,36,0S16.2.46,6.46,1.34Z"/><path class="lw" d="m6.57,1.34c-2.3.21-3.7,2.89-2.68,5.17l13.26,29.4,15.91,35.27c1.2,2.67,4.68,2.67,5.88,0l15.91-35.27,13.26-29.4c1.02-2.27-.37-4.96-2.68-5.17C55.73.46,45.91,0,36,0S16.28.46,6.57,1.34Z"/><path class="kr" d="m6.68,1.33c-2.31.21-3.71,2.91-2.69,5.2l13.21,29.3,15.85,35.15c1.2,2.68,4.7,2.68,5.9,0l15.85-35.15,13.21-29.3c1.03-2.29-.37-4.99-2.69-5.2C55.65.46,45.88,0,36,0S16.35.46,6.68,1.33Z"/><path class="kj" d="m6.78,1.33c-2.32.21-3.73,2.92-2.7,5.22l13.16,29.2,15.79,35.03c1.21,2.7,4.71,2.7,5.92,0l15.79-35.03,13.16-29.2c1.03-2.3-.37-5.01-2.7-5.22C55.58.46,45.84,0,36,0S16.42.46,6.78,1.33Z"/><path class="ki" d="m6.89,1.32c-2.33.21-3.75,2.94-2.71,5.25l13.11,29.11,15.73,34.92c1.21,2.71,4.73,2.71,5.95,0l15.73-34.92,13.11-29.11c1.03-2.31-.38-5.04-2.71-5.25C55.51.46,45.8,0,36,0S16.49.46,6.89,1.32Z"/><path class="fz" d="m7,1.31c-2.34.21-3.76,2.95-2.72,5.27l13.06,29.01,15.67,34.8c1.22,2.72,4.75,2.72,5.97,0l15.67-34.8,13.06-29.01c1.04-2.32-.38-5.07-2.72-5.27C55.43.45,45.76,0,36,0S16.57.45,7,1.31Z"/><path class="gb" d="m7.11,1.31c-2.35.21-3.78,2.97-2.73,5.3l13.01,28.91,15.61,34.68c1.22,2.73,4.77,2.73,5.99,0l15.61-34.68,13.01-28.91c1.04-2.33-.38-5.09-2.73-5.3C55.36.45,45.73,0,36,0S16.64.45,7.11,1.31Z"/><path class="gr" d="m7.22,1.3c-2.36.21-3.79,2.98-2.74,5.33l12.96,28.82,15.55,34.56c1.23,2.75,4.79,2.75,6.01,0l15.55-34.56,12.97-28.82c1.05-2.34-.38-5.12-2.74-5.33C55.29.45,45.69,0,36,0S16.71.45,7.22,1.3Z"/><path class="gh" d="m7.33,1.3c-2.37.21-3.81,3-2.76,5.35l12.92,28.72,15.49,34.45c1.23,2.76,4.8,2.76,6.04,0l15.49-34.45,12.92-28.72c1.05-2.36-.38-5.14-2.76-5.35C55.21.45,45.65,0,36,0S16.79.45,7.33,1.3Z"/><path class="gj" d="m7.44,1.29c-2.38.21-3.83,3.01-2.77,5.38l12.87,28.62,15.43,34.33c1.24,2.77,4.82,2.77,6.06,0l15.43-34.33,12.87-28.62c1.06-2.37-.38-5.17-2.77-5.38C55.14.45,45.62,0,36,0S16.86.45,7.44,1.29Z"/><path class="gl" d="m7.55,1.28c-2.39.21-3.84,3.03-2.78,5.41l12.82,28.53,15.37,34.21c1.24,2.78,4.84,2.78,6.08,0l15.37-34.21,12.82-28.53c1.06-2.38-.38-5.19-2.78-5.41C55.07.44,45.58,0,36,0S16.93.44,7.55,1.28Z"/><path class="gd" d="m7.65,1.28c-2.4.21-3.86,3.04-2.79,5.43l12.77,28.43,15.31,34.09c1.25,2.8,4.86,2.8,6.11,0l15.31-34.09,12.77-28.43c1.07-2.39-.39-5.22-2.79-5.43C54.99.44,45.54,0,36,0S17.01.44,7.65,1.28Z"/><path class="gf" d="m7.76,1.27c-2.41.21-3.87,3.06-2.8,5.46l12.72,28.33,15.25,33.98c1.25,2.81,4.87,2.81,6.13,0l15.25-33.98,12.72-28.33c1.07-2.4-.39-5.24-2.8-5.46C54.92.44,45.51,0,36,0S17.08.44,7.76,1.27Z"/><path class="hp" d="m7.87,1.27c-2.42.21-3.89,3.07-2.81,5.49l12.67,28.24,15.19,33.86c1.26,2.82,4.89,2.82,6.15,0l15.19-33.86,12.67-28.24c1.08-2.41-.39-5.27-2.81-5.49C54.85.44,45.47,0,36,0S17.15.44,7.87,1.27Z"/><path class="hv" d="m7.98,1.26c-2.43.22-3.91,3.08-2.82,5.51l12.62,28.14,15.13,33.74c1.26,2.83,4.91,2.83,6.17,0l15.13-33.74,12.62-28.14c1.08-2.43-.39-5.3-2.82-5.51C54.78.44,45.43,0,36,0S17.22.44,7.98,1.26Z"/><path class="in" d="m8.09,1.26c-2.44.22-3.92,3.1-2.83,5.54l12.57,28.04,15.07,33.62c1.27,2.85,4.93,2.85,6.2,0l15.07-33.62,12.57-28.04c1.09-2.44-.39-5.32-2.83-5.54C54.7.43,45.4,0,36,0S17.3.43,8.09,1.26Z"/><path class="ip" d="m8.2,1.25c-2.45.22-3.94,3.11-2.84,5.56l12.52,27.95,15.02,33.51c1.27,2.86,4.95,2.86,6.22,0l15.01-33.51,12.52-27.95c1.09-2.45-.39-5.35-2.84-5.56C54.63.43,45.36,0,36,0S17.37.43,8.2,1.25Z"/><path class="id" d="m8.31,1.24c-2.46.22-3.95,3.13-2.86,5.59l12.47,27.85,14.96,33.39c1.28,2.87,4.96,2.87,6.24,0l14.96-33.39,12.47-27.85c1.1-2.46-.39-5.37-2.86-5.59C54.56.43,45.32,0,36,0S17.44.43,8.31,1.24Z"/><path class="if" d="m8.42,1.24c-2.47.22-3.97,3.14-2.87,5.62l12.42,27.75,14.9,33.27c1.28,2.88,4.98,2.88,6.27,0l14.9-33.27,12.42-27.75c1.1-2.47-.39-5.4-2.87-5.62C54.48.43,45.29,0,36,0S17.52.43,8.42,1.24Z"/><path class="fv" d="m8.52,1.23c-2.48.22-3.99,3.16-2.88,5.64l12.37,27.65,14.84,33.16c1.29,2.9,5,2.9,6.29,0l14.84-33.16,12.37-27.65c1.11-2.49-.4-5.42-2.88-5.64C54.41.43,45.25,0,36,0S17.59.43,8.52,1.23Z"/><path class="fx" d="m8.63,1.23c-2.49.22-4,3.17-2.89,5.67l12.32,27.56,14.78,33.04c1.29,2.91,5.02,2.91,6.31,0l14.78-33.04,12.32-27.56c1.11-2.5-.4-5.45-2.89-5.67C54.34.42,45.21,0,36,0S17.66.42,8.63,1.23Z"/><path class="hd" d="m8.74,1.22c-2.5.22-4.02,3.19-2.9,5.7l12.27,27.46,14.72,32.92c1.3,2.92,5.03,2.92,6.33,0l14.72-32.92,12.27-27.46c1.12-2.51-.4-5.48-2.9-5.7C54.26.42,45.18,0,36,0S17.74.42,8.74,1.22Z"/><path class="hh" d="m8.85,1.21c-2.51.22-4.03,3.2-2.91,5.72l12.22,27.36,14.66,32.8c1.3,2.93,5.05,2.93,6.36,0l14.66-32.8,12.23-27.36c1.12-2.52-.4-5.5-2.91-5.72C54.19.42,45.14,0,36,0S17.81.42,8.85,1.21Z"/><path class="ft" d="m8.96,1.21c-2.52.22-4.05,3.22-2.92,5.75l12.18,27.27,14.6,32.69c1.31,2.94,5.07,2.94,6.38,0l14.6-32.69,12.18-27.27c1.13-2.53-.4-5.53-2.92-5.75C54.12.42,45.1,0,36,0S17.88.42,8.96,1.21Z"/><path class="fr" d="m9.07,1.2c-2.53.22-4.07,3.23-2.93,5.77l12.13,27.17,14.54,32.57c1.31,2.96,5.09,2.96,6.4,0l14.54-32.57,12.13-27.17c1.13-2.54-.4-5.55-2.93-5.77C54.05.42,45.07,0,36,0S17.96.42,9.07,1.2Z"/><path class="hl" d="m9.18,1.2c-2.54.22-4.08,3.25-2.95,5.8l12.08,27.07,14.48,32.45c1.32,2.97,5.11,2.97,6.43,0l14.48-32.45,12.08-27.07c1.14-2.56-.4-5.58-2.95-5.8C53.97.41,45.03,0,36,0S18.03.41,9.18,1.2Z"/><path class="hn" d="m9.29,1.19c-2.55.22-4.1,3.26-2.96,5.83l12.03,26.98,14.42,32.33c1.33,2.98,5.12,2.98,6.45,0l14.42-32.33,12.03-26.98c1.14-2.57-.41-5.6-2.96-5.83C53.9.41,44.99,0,36,0S18.1.41,9.29,1.19Z"/><path class="hr" d="m9.4,1.19c-2.56.23-4.11,3.28-2.97,5.85l11.98,26.88,14.36,32.22c1.33,2.99,5.14,2.99,6.47,0l14.36-32.22,11.98-26.88c1.15-2.58-.41-5.63-2.97-5.85C53.83.41,44.96,0,36,0S18.17.41,9.4,1.19Z"/><path class="hx" d="m9.5,1.18c-2.57.23-4.13,3.29-2.98,5.88l11.93,26.78,14.3,32.1c1.34,3.01,5.16,3.01,6.49,0l14.3-32.1,11.93-26.78c1.15-2.59-.41-5.65-2.98-5.88C53.75.41,44.92,0,36,0S18.25.41,9.5,1.18Z"/><path class="hj" d="m9.61,1.17c-2.58.23-4.15,3.3-2.99,5.91l11.88,26.69,14.24,31.98c1.34,3.02,5.18,3.02,6.52,0l14.24-31.98,11.88-26.69c1.15-2.6-.41-5.68-2.99-5.91C53.68.41,44.88,0,36,0S18.32.41,9.61,1.17Z"/><path class="gn" d="m9.72,1.17c-2.59.23-4.16,3.32-3,5.93l11.83,26.59,14.18,31.87c1.35,3.03,5.2,3.03,6.54,0l14.18-31.87,11.83-26.59c1.16-2.61-.41-5.71-3-5.93C53.61.4,44.85,0,36,0S18.39.4,9.72,1.17Z"/><path class="gp" d="m9.83,1.16c-2.6.23-4.18,3.33-3.01,5.96l11.78,26.49,14.12,31.75c1.35,3.04,5.21,3.04,6.56,0l14.12-31.75,11.78-26.49c1.16-2.63-.41-5.73-3.01-5.96C53.53.4,44.81,0,36,0S18.47.4,9.83,1.16Z"/><path class="ih" d="m9.94,1.16c-2.61.23-4.19,3.35-3.02,5.99l11.73,26.4,14.06,31.63c1.36,3.06,5.23,3.06,6.59,0l14.06-31.63,11.73-26.4c1.17-2.64-.41-5.76-3.02-5.99C53.46.4,44.77,0,36,0S18.54.4,9.94,1.16Z"/><path class="gz" d="m10.05,1.15c-2.62.23-4.21,3.36-3.04,6.01l11.68,26.3,14,31.51c1.36,3.07,5.25,3.07,6.61,0l14-31.51,11.68-26.3c1.17-2.65-.41-5.78-3.04-6.01C53.39.4,44.74,0,36,0S18.61.4,10.05,1.15Z"/><path class="hb" d="m10.16,1.14c-2.63.23-4.23,3.38-3.05,6.04l11.63,26.2,13.94,31.4c1.37,3.08,5.27,3.08,6.63,0l13.94-31.4,11.63-26.2c1.18-2.66-.42-5.81-3.05-6.04C53.31.4,44.7,0,36,0S18.69.4,10.16,1.14Z"/><path class="hf" d="m10.27,1.14c-2.64.23-4.24,3.39-3.06,6.06l11.58,26.1,13.88,31.28c1.37,3.09,5.28,3.09,6.65,0l13.88-31.28,11.58-26.1c1.18-2.67-.42-5.83-3.06-6.06C53.24.39,44.66,0,36,0S18.76.39,10.27,1.14Z"/><path class="am" d="m10.37,1.13c-2.65.23-4.26,3.41-3.07,6.09l11.53,26.01,13.82,31.16c1.38,3.11,5.3,3.11,6.68,0l13.82-31.16,11.53-26.01c1.19-2.68-.42-5.86-3.07-6.09C53.17.39,44.63,0,36,0S18.83.39,10.37,1.13Z"/><path class="ao" d="m10.48,1.13c-2.66.23-4.27,3.42-3.08,6.12l11.48,25.91,13.76,31.04c1.38,3.12,5.32,3.12,6.7,0l13.76-31.04,11.49-25.91c1.19-2.7-.42-5.88-3.08-6.12C53.1.39,44.59,0,36,0S18.9.39,10.48,1.13Z"/><path class="af" d="m10.59,1.12c-2.67.23-4.29,3.44-3.09,6.14l11.44,25.81,13.7,30.93c1.39,3.13,5.34,3.13,6.72,0l13.7-30.93,11.44-25.81c1.2-2.71-.42-5.91-3.09-6.14C53.02.39,44.55,0,36,0S18.98.39,10.59,1.12Z"/><path class="aj" d="m10.7,1.12c-2.68.23-4.31,3.45-3.1,6.17l11.39,25.72,13.64,30.81c1.39,3.14,5.36,3.14,6.75,0l13.64-30.81,11.39-25.72c1.2-2.72-.42-5.94-3.1-6.17C52.95.39,44.52,0,36,0S19.05.39,10.7,1.12Z"/><path class="aq" d="m10.81,1.11c-2.69.23-4.32,3.47-3.11,6.2l11.34,25.62,13.58,30.69c1.4,3.15,5.37,3.15,6.77,0l13.58-30.69,11.34-25.62c1.21-2.73-.42-5.96-3.11-6.2C52.88.38,44.48,0,36,0S19.12.38,10.81,1.11Z"/><path class="ah" d="m10.92,1.1c-2.7.24-4.34,3.48-3.12,6.22l11.29,25.52,13.52,30.58c1.4,3.17,5.39,3.17,6.79,0l13.52-30.58,11.29-25.52c1.21-2.74-.43-5.99-3.12-6.22C52.8.38,44.44,0,36,0S19.2.38,10.92,1.1Z"/><path d="m11.03,1.1c-2.71.24-4.35,3.49-3.14,6.25l11.24,25.43,13.46,30.46c1.41,3.18,5.41,3.18,6.81,0l13.46-30.46,11.24-25.43c1.22-2.75-.43-6.01-3.14-6.25C52.73.38,44.4,0,36,0S19.27.38,11.03,1.1Z"/></g><path class="ak" d="m3.85,1.52l14.44,28.82,17.71,35.34,17.71-35.34L68.15,1.52C57.56.53,46.84,0,36,0S14.44.53,3.85,1.52Z"/><path class="f" d="m3.94,1.52l14.35,27.78,17.71,34.26,17.71-34.26L68.06,1.52C57.51.53,46.82,0,36,0S14.5.53,3.94,1.52Z"/><path class="l" d="m15,7.67c7.06-.45,14.09-.67,21-.67s13.94.22,21,.67l-21,40.64L15,7.67Z"/><path class="k" d="m15,7.67c7.06-.45,14.09-.67,21-.67s13.94.22,21,.67l-21,40.64L15,7.67Z"/><path class="i" d="m15,7.67c7.06-.45,14.09-.67,21-.67s13.94.22,21,.67l-21,40.64L15,7.67Z"/></svg>