<?xml version="1.0" encoding="UTF-8"?><svg id="a" xmlns="http://www.w3.org/2000/svg" xmlns:xlink="http://www.w3.org/1999/xlink" viewBox="0 0 520 520"><defs><style>.j{fill:url(#g);}.k{fill:url(#h);}.l{fill:url(#i);}.m{fill:url(#d);}.n{fill:url(#e);}.o{fill:url(#c);}.p{fill:url(#b);}.q,.r,.s,.t,.u,.v,.w,.x,.y,.z,.aa,.ab,.ac,.ad,.ae,.af,.ag{fill:none;}.q,.v,.ae,.af,.ah,.ag,.ai{opacity:.5;}.r,.u,.v,.w,.x,.y,.z,.ac,.ad,.ae,.af,.ag{stroke-linecap:round;stroke-linejoin:round;}.r,.w,.x,.y{stroke:#fff;}.s{opacity:.6;}.t,.u,.z,.ac,.ad{opacity:.75;}.u,.z,.ab,.ac,.ad{stroke:#ffb3cc;}.u,.ae{stroke-width:3px;}.v{stroke-width:4px;}.v,.ae,.af,.ag{stroke:#f69;}.w{stroke-width:1.03px;}.x{stroke-width:1.01px;}.y,.aa,.ab,.ac{stroke-width:2px;}.z{stroke-width:2.02px;}.aa{stroke:#990032;}.aa,.ab{stroke-miterlimit:10;}.ad{stroke-width:2.06px;}.af{stroke-width:3.03px;}.ah{fill:url(#f);}.ag{stroke-width:3.09px;}.ai{fill:#f69;}</style><radialGradient id="b" cx="260" cy="260" fx="260" fy="260" r="260" gradientUnits="userSpaceOnUse"><stop offset="0" stop-color="#f05"/><stop offset=".98" stop-color="#2979d8"/><stop offset=".98" stop-color="#337bd7"/><stop offset=".98" stop-color="#698ad4"/><stop offset=".99" stop-color="#9796d1"/><stop offset=".99" stop-color="#bca0cf"/><stop offset=".99" stop-color="#d9a8ce"/><stop offset=".99" stop-color="#eeaecc"/><stop offset=".99" stop-color="#fab1cc"/><stop offset=".99" stop-color="#ffb3cc"/><stop offset=".99" stop-color="#ffcadb"/><stop offset=".99" stop-color="#ffe1eb"/><stop offset=".99" stop-color="#fff2f6"/><stop offset=".99" stop-color="#fffbfc"/><stop offset=".99" stop-color="#fff"/><stop offset=".99" stop-color="#fffcfc"/><stop offset=".99" stop-color="#fff2f6"/><stop offset=".99" stop-color="#ffe2eb"/><stop offset="1" stop-color="#ffcbdc"/><stop offset="1" stop-color="#ffb3cc"/><stop offset="1" stop-color="#ffafc9"/><stop offset="1" stop-color="#ffa5c3"/><stop offset="1" stop-color="#ff94b7"/><stop offset="1" stop-color="#ff7ca7"/><stop offset="1" stop-color="#ff5d93"/><stop offset="1" stop-color="#ff3779"/><stop offset="1" stop-color="#ff0b5c"/><stop offset="1" stop-color="#f05"/></radialGradient><linearGradient id="c" x1="260" y1="4" x2="260" y2="516" gradientUnits="userSpaceOnUse"><stop offset="0" stop-color="#57141a"/><stop offset=".26" stop-color="#480a0d"/><stop offset=".54" stop-color="#3d0404"/><stop offset="1" stop-color="#6b101f"/></linearGradient><radialGradient id="d" cx="260.86" cy="259.77" fx="260.86" fy="259.77" r="253.54" gradientUnits="userSpaceOnUse"><stop offset=".8" stop-color="#990032"/><stop offset="1" stop-color="#ff0054"/></radialGradient><radialGradient id="e" cx="260.86" fx="260.86" r="253.54" xlink:href="#d"/><radialGradient id="f" cx="262.44" cy="260" fx="262.44" fy="260" r="254.77" gradientUnits="userSpaceOnUse"><stop offset=".9" stop-color="#7f0015"/><stop offset=".93" stop-color="#810016"/><stop offset=".95" stop-color="#89001a"/><stop offset=".96" stop-color="#980021"/><stop offset=".97" stop-color="#ac002b"/><stop offset=".98" stop-color="#c60038"/><stop offset=".99" stop-color="#e60048"/><stop offset="1" stop-color="#f05"/></radialGradient><linearGradient id="g" x1="97.36" y1="97.36" x2="420.3" y2="420.3" xlink:href="#c"/><linearGradient id="h" x1="98.06" y1="98.06" x2="423.18" y2="423.18" gradientUnits="userSpaceOnUse"><stop offset="0" stop-color="#8b0f19"/><stop offset=".2" stop-color="#5d001f"/><stop offset=".29" stop-color="#7d0a25"/><stop offset=".37" stop-color="#96122a"/><stop offset=".43" stop-color="#9f152c"/><stop offset=".52" stop-color="#ec2445"/><stop offset=".53" stop-color="#dc203f"/><stop offset=".54" stop-color="#c11b37"/><stop offset=".56" stop-color="#ae1730"/><stop offset=".57" stop-color="#a2152d"/><stop offset=".59" stop-color="#9f152c"/><stop offset=".7" stop-color="#5d001f"/><stop offset=".8" stop-color="#33000d"/><stop offset=".95" stop-color="#8b0f19"/><stop offset=".96" stop-color="#8f0e19"/><stop offset=".97" stop-color="#9c0e19"/><stop offset=".98" stop-color="#b30d1a"/><stop offset="1" stop-color="#d10c1c"/><stop offset="1" stop-color="#de0c1d"/></linearGradient><linearGradient id="i" x1="101.56" y1="101.56" x2="416.15" y2="416.15" xlink:href="#c"/></defs><circle class="p" cx="260" cy="260" r="260"/><circle class="o" cx="260" cy="260" r="256"/><g class="q"><path class="m" d="m440.31,79.69C394.17,33.54,330.42,5,260,5,119.17,5,5,119.17,5,260c0,22.83,3.02,44.95,8.65,66.01l246.35-66.01,180.31-180.31Z"/><path class="n" d="m506.35,193.99l-246.35,66.01-180.31,180.31c46.15,46.15,109.9,74.69,180.31,74.69,140.83,0,255-114.17,255-255,0-22.83-3.02-44.95-8.65-66.01Z"/></g><path class="ah" d="m260,260l-126.25,218.67C55.72,433.62,7.5,350.1,7.5,260S55.72,86.38,133.75,41.33l126.25,218.67Z"/><circle class="aa" cx="260" cy="260" r="256"/><path class="ai" d="m260,260l-125,216.51c-18.92-10.92-36.33-24.28-51.78-39.73-15.45-15.45-28.81-32.86-39.73-51.78l216.51-125Z"/><path class="ai" d="m260,260L324.7,18.52c31.71,8.5,61.44,23.16,87.49,43.14,26.05,19.99,47.9,44.91,64.32,73.34l-216.51,125Z"/><circle class="ab" cx="260" cy="260" r="232.5"/><g class="s"><path class="af" d="m260,260l232.57-84.65c4.93,13.54,8.66,27.48,11.17,41.67,2.5,14.19,3.76,28.57,3.76,42.98h-247.5Z"/><path class="z" d="m260,260l232.57-84.65c4.93,13.54,8.66,27.48,11.17,41.67,2.5,14.19,3.76,28.57,3.76,42.98h-247.5Z"/><path class="x" d="m260,260l232.57-84.65c4.93,13.54,8.66,27.48,11.17,41.67,2.5,14.19,3.76,28.57,3.76,42.98h-247.5Z"/></g><g class="q"><path class="ag" d="m260,260L133.75,41.33c19.11-11.03,39.58-19.51,60.9-25.22,21.31-5.71,43.29-8.6,65.35-8.6v252.5Z"/><path class="ad" d="m260,260L133.75,41.33c19.11-11.03,39.58-19.51,60.9-25.22,21.31-5.71,43.29-8.6,65.35-8.6v252.5Z"/><path class="w" d="m260,260L133.75,41.33c19.11-11.03,39.58-19.51,60.9-25.22,21.31-5.71,43.29-8.6,65.35-8.6v252.5Z"/></g><path class="ae" d="m260,260l212.18,122.5c-43.71,75.71-124.75,122.5-212.18,122.5-64.95,0-127.31-25.83-173.24-71.76l173.24-173.24Z"/><path class="ac" d="m260,260l212.18,122.5c-43.71,75.71-124.75,122.5-212.18,122.5-64.95,0-127.31-25.83-173.24-71.76l173.24-173.24Z"/><path class="r" d="m260,260l212.18,122.5c-43.71,75.71-124.75,122.5-212.18,122.5-64.95,0-127.31-25.83-173.24-71.76l173.24-173.24Z"/><g class="t"><path class="v" d="m260,260L47.82,137.5C91.53,61.79,172.58,15,260,15c43,0,85.26,11.32,122.5,32.82l-122.5,212.18Z"/><path class="u" d="m260,260L47.82,137.5C91.53,61.79,172.58,15,260,15c43,0,85.26,11.32,122.5,32.82l-122.5,212.18Z"/><path class="y" d="m260,260L47.82,137.5C91.53,61.79,172.58,15,260,15c43,0,85.26,11.32,122.5,32.82l-122.5,212.18Z"/></g><circle class="j" cx="260" cy="260" r="232"/><circle class="k" cx="260" cy="260" r="231"/><circle class="l" cx="260" cy="260" r="226"/></svg>