<?xml version="1.0" encoding="UTF-8"?>
<svg id="a" width="95" height="95" version="1.1" viewBox="0 0 95 95" xmlns="http://www.w3.org/2000/svg">
 <defs>
  <style>.e{fill:url(#c);}.f{fill:url(#b);}.g{fill:#004d28;}.h{fill:url(#d);opacity:.39;}</style>
  <radialGradient id="b" cx="75" cy="75" r="47.5" gradientTransform="translate(-27.5,-27.5)" gradientUnits="userSpaceOnUse">
   <stop offset=".7"/>
   <stop stop-opacity=".53" offset=".96"/>
   <stop stop-opacity="0" offset="1"/>
  </radialGradient>
  <radialGradient id="c" cx="75" cy="75" r="40" gradientTransform="translate(-27.5,-27.5)" gradientUnits="userSpaceOnUse">
   <stop stop-color="#20c436" offset="0"/>
   <stop stop-color="#15b23b" offset=".15"/>
   <stop stop-color="#009245" offset=".37"/>
   <stop stop-color="#006837" offset=".77"/>
   <stop stop-color="#0b404a" offset=".94"/>
   <stop stop-color="#0a3c45" offset=".96"/>
   <stop stop-color="#083139" offset=".97"/>
   <stop stop-color="#051f24" offset=".98"/>
   <stop stop-color="#010607" offset="1"/>
   <stop offset="1"/>
  </radialGradient>
  <radialGradient id="d" cx="2113.6" cy="-2064.7" r="12.41" gradientTransform="matrix(1 0 0 .78 -2101.9 1684.7)" gradientUnits="userSpaceOnUse">
   <stop stop-color="#fff" offset="0"/>
   <stop stop-color="#fff" stop-opacity=".98" offset=".12"/>
   <stop stop-color="#fff" stop-opacity=".93" offset=".25"/>
   <stop stop-color="#fff" stop-opacity=".85" offset=".37"/>
   <stop stop-color="#fff" stop-opacity=".74" offset=".5"/>
   <stop stop-color="#fff" stop-opacity=".59" offset=".63"/>
   <stop stop-color="#fff" stop-opacity=".41" offset=".76"/>
   <stop stop-color="#fff" stop-opacity=".2" offset=".89"/>
   <stop stop-color="#fff" stop-opacity="0" offset="1"/>
  </radialGradient>
 </defs>
 <circle class="f" cx="47.5" cy="47.5" r="47.5" fill="url(#b)"/>
 <circle class="e" cx="47.5" cy="47.5" r="40" fill="url(#c)"/>
 <path class="g" d="m47.5 17.9c16.32 0 29.6 13.28 29.6 29.6s-13.28 29.6-29.6 29.6-29.6-13.28-29.6-29.6 13.28-29.6 29.6-29.6m0-2.4c-17.67 0-32 14.33-32 32s14.33 32 32 32 32-14.33 32-32-14.33-32-32-32z"/>
 <path class="g" d="m61.035 43.238-22.15-12.79c-3.28-1.89-7.38 0.47-7.38 4.26v25.58c0 3.79 4.1 6.16 7.38 4.26l22.15-12.79c3.28-1.89 3.28-6.63 0-8.53z"/>
 <ellipse class="h" transform="rotate(-34.99)" cx="11.676" cy="66.153" rx="12.41" ry="9.73" fill="url(#d)"/>
</svg>
