<?xml version="1.0" encoding="UTF-8"?><svg id="a" xmlns="http://www.w3.org/2000/svg" xmlns:xlink="http://www.w3.org/1999/xlink" viewBox="0 0 520 520"><defs><style>.k{fill:url(#j);}.l{fill:url(#h);}.m{fill:url(#i);}.n{fill:url(#f);}.o{fill:url(#d);}.p{fill:url(#e);}.q{fill:url(#c);}.r,.s,.t,.u,.v,.w,.x,.y,.z,.aa,.ab,.ac,.ad,.ae,.af,.ag,.ah,.ai,.aj{fill:none;}.s,.x,.ab,.ai,.aj,.ak,.al{opacity:.5;}.t,.w,.x,.y,.z,.ab,.ac,.ad,.af,.ah,.ai,.aj{stroke-linecap:round;stroke-linejoin:round;}.t,.y,.z,.ac{stroke:#fff;}.u{opacity:.6;}.v,.w,.ad,.af,.ah{opacity:.75;}.w,.ad,.ae,.af,.ah{stroke:#b6e5ff;}.w,.ai{stroke-width:3px;}.x{stroke-width:3.09px;}.x,.ab,.ai,.aj{stroke:#7ec1e6;}.y{stroke-width:1.03px;}.z{stroke-width:1.01px;}.aa{clip-path:url(#b);}.ab{stroke-width:4px;}.ac,.ae,.ag,.ah{stroke-width:2px;}.ad{stroke-width:2.06px;}.ae,.ag{stroke-miterlimit:10;}.af{stroke-width:2.02px;}.ag{stroke:#3a5b8f;}.aj{stroke-width:3.03px;}.ak{fill:url(#g);}.al{fill:#b3e1fb;}</style><clipPath id="b"><circle class="r" cx="260" cy="260" r="260"/></clipPath><radialGradient id="c" cx="260" cy="260" fx="260" fy="260" r="260" gradientUnits="userSpaceOnUse"><stop offset="0" stop-color="#44719c"/><stop offset=".98" stop-color="#44719c"/><stop offset=".98" stop-color="#4c79a3"/><stop offset=".98" stop-color="#719ec2"/><stop offset=".99" stop-color="#8ebbdb"/><stop offset=".99" stop-color="#a2d0ec"/><stop offset=".99" stop-color="#aedcf7"/><stop offset=".99" stop-color="#b3e1fb"/><stop offset=".99" stop-color="#caeafc"/><stop offset=".99" stop-color="#e1f3fd"/><stop offset=".99" stop-color="#f2f9fe"/><stop offset=".99" stop-color="#fbfdfe"/><stop offset=".99" stop-color="#fff"/><stop offset=".99" stop-color="#fcfdfe"/><stop offset=".99" stop-color="#f2fafe"/><stop offset=".99" stop-color="#e2f3fd"/><stop offset="1" stop-color="#cbeafc"/><stop offset="1" stop-color="#b3e1fb"/><stop offset="1" stop-color="#afddf8"/><stop offset="1" stop-color="#a5d3ef"/><stop offset="1" stop-color="#94c2e1"/><stop offset="1" stop-color="#7daacc"/><stop offset="1" stop-color="#5e8bb2"/><stop offset="1" stop-color="#44719c"/></radialGradient><linearGradient id="d" x1="260" y1="4" x2="260" y2="516" gradientUnits="userSpaceOnUse"><stop offset="0" stop-color="#58778a"/><stop offset=".06" stop-color="#4b677b"/><stop offset=".28" stop-color="#22374c"/><stop offset=".45" stop-color="#091a2e"/><stop offset=".54" stop-color="#000f24"/><stop offset="1" stop-color="#004970"/></linearGradient><radialGradient id="e" cx="260.86" cy="259.77" fx="260.86" fy="259.77" r="253.54" gradientUnits="userSpaceOnUse"><stop offset=".8" stop-color="#44719c"/><stop offset="1" stop-color="#7d9dba"/></radialGradient><radialGradient id="f" cx="260.86" cy="259.77" fx="260.86" fy="259.77" r="253.54" gradientUnits="userSpaceOnUse"><stop offset=".8" stop-color="#749ab3"/><stop offset="1" stop-color="#c2e7fa"/></radialGradient><radialGradient id="g" cx="262.44" cy="260" fx="262.44" fy="260" r="254.77" gradientUnits="userSpaceOnUse"><stop offset=".9" stop-color="#2c5d7f"/><stop offset=".93" stop-color="#2e5f81"/><stop offset=".94" stop-color="#366789"/><stop offset=".96" stop-color="#457596"/><stop offset=".97" stop-color="#5989a8"/><stop offset=".98" stop-color="#73a3c0"/><stop offset=".99" stop-color="#93c2de"/><stop offset="1" stop-color="#b3e1fb"/></radialGradient><linearGradient id="h" x1="97.36" y1="97.36" x2="420.3" y2="420.3" xlink:href="#d"/><linearGradient id="i" x1="98.06" y1="98.06" x2="423.18" y2="423.18" gradientUnits="userSpaceOnUse"><stop offset="0" stop-color="#a3c9e6"/><stop offset=".2" stop-color="#2c5d7f"/><stop offset=".21" stop-color="#336485"/><stop offset=".28" stop-color="#6a99b7"/><stop offset=".35" stop-color="#91c0dc"/><stop offset=".4" stop-color="#aad8f2"/><stop offset=".43" stop-color="#b3e1fb"/><stop offset=".52" stop-color="#b3f4ff"/><stop offset=".53" stop-color="#b3f0fe"/><stop offset=".56" stop-color="#b3e4fb"/><stop offset=".59" stop-color="#b3e1fb"/><stop offset=".7" stop-color="#44719c"/><stop offset=".8" stop-color="#1a2f4f"/><stop offset=".95" stop-color="#6e93cc"/><stop offset=".96" stop-color="#7197ce"/><stop offset=".97" stop-color="#7aa4d5"/><stop offset=".98" stop-color="#8abbe1"/><stop offset=".99" stop-color="#a0d9f1"/><stop offset="1" stop-color="#b3f4ff"/></linearGradient><linearGradient id="j" x1="101.56" y1="101.56" x2="416.15" y2="416.15" xlink:href="#d"/></defs><g class="aa"><circle class="q" cx="260" cy="260" r="260"/><circle class="o" cx="260" cy="260" r="256"/><g class="s"><path class="p" d="m440.31,79.69C394.17,33.54,330.42,5,260,5,119.17,5,5,119.17,5,260c0,22.83,3.02,44.95,8.65,66.01l246.35-66.01,180.31-180.31Z"/><path class="n" d="m506.35,193.99l-246.35,66.01-180.31,180.31c46.15,46.15,109.9,74.69,180.31,74.69,140.83,0,255-114.17,255-255,0-22.83-3.02-44.95-8.65-66.01Z"/></g><path class="ak" d="m260,260l-126.25,218.67C55.72,433.62,7.5,350.1,7.5,260S55.72,86.38,133.75,41.33l126.25,218.67Z"/><circle class="ag" cx="260" cy="260" r="256"/><path class="al" d="m260,260l-125,216.51c-18.92-10.92-36.33-24.28-51.78-39.73-15.45-15.45-28.81-32.86-39.73-51.78l216.51-125Z"/><path class="al" d="m260,260L324.7,18.52c31.71,8.5,61.44,23.16,87.49,43.14,26.05,19.99,47.9,44.91,64.32,73.34l-216.51,125Z"/><circle class="ae" cx="260" cy="260" r="232.5"/><g class="u"><path class="aj" d="m260,260l232.57-84.65c4.93,13.54,8.66,27.48,11.17,41.67,2.5,14.19,3.76,28.57,3.76,42.98h-247.5Z"/><path class="af" d="m260,260l232.57-84.65c4.93,13.54,8.66,27.48,11.17,41.67,2.5,14.19,3.76,28.57,3.76,42.98h-247.5Z"/><path class="z" d="m260,260l232.57-84.65c4.93,13.54,8.66,27.48,11.17,41.67,2.5,14.19,3.76,28.57,3.76,42.98h-247.5Z"/></g><g class="s"><path class="x" d="m260,260L133.75,41.33c19.11-11.03,39.58-19.51,60.9-25.22s43.29-8.6,65.35-8.6v252.5Z"/><path class="ad" d="m260,260L133.75,41.33c19.11-11.03,39.58-19.51,60.9-25.22s43.29-8.6,65.35-8.6v252.5Z"/><path class="y" d="m260,260L133.75,41.33c19.11-11.03,39.58-19.51,60.9-25.22s43.29-8.6,65.35-8.6v252.5Z"/></g><path class="ai" d="m260,260l212.18,122.5c-43.71,75.71-124.75,122.5-212.18,122.5-64.95,0-127.31-25.83-173.24-71.76l173.24-173.24Z"/><path class="ah" d="m260,260l212.18,122.5c-43.71,75.71-124.75,122.5-212.18,122.5-64.95,0-127.31-25.83-173.24-71.76l173.24-173.24Z"/><path class="t" d="m260,260l212.18,122.5c-43.71,75.71-124.75,122.5-212.18,122.5-64.95,0-127.31-25.83-173.24-71.76l173.24-173.24Z"/><g class="v"><path class="ab" d="m260,260L47.82,137.5C91.53,61.79,172.58,15,260,15c43,0,85.26,11.32,122.5,32.82l-122.5,212.18Z"/><path class="w" d="m260,260L47.82,137.5C91.53,61.79,172.58,15,260,15c43,0,85.26,11.32,122.5,32.82l-122.5,212.18Z"/><path class="ac" d="m260,260L47.82,137.5C91.53,61.79,172.58,15,260,15c43,0,85.26,11.32,122.5,32.82l-122.5,212.18Z"/></g></g><circle class="l" cx="260" cy="260" r="232"/><circle class="m" cx="260" cy="260" r="231"/><circle class="k" cx="260" cy="260" r="226"/></svg>