<?xml version="1.0" encoding="UTF-8"?><svg id="a" xmlns="http://www.w3.org/2000/svg" xmlns:xlink="http://www.w3.org/1999/xlink" viewBox="0 0 150 150"><defs><style>.j{fill:url(#g);}.k{fill:url(#h);}.l{fill:url(#d);}.m{fill:url(#e);}.n{fill:url(#c);}.o{fill:url(#b);}.p,.q{fill:none;}.r,.s{fill:aqua;}.q{clip-path:url(#f);}.t{fill:url(#i);}.t,.s{opacity:.5;}.u{fill:#fff;opacity:.7;}</style><radialGradient id="b" cx="75" cy="75" fx="75" fy="75" r="75" gradientUnits="userSpaceOnUse"><stop offset=".5" stop-color="#000"/><stop offset=".93" stop-color="#000" stop-opacity=".37"/><stop offset="1" stop-color="#000" stop-opacity="0"/></radialGradient><linearGradient id="c" x1="75" y1="9.81" x2="75" y2="140.32" gradientUnits="userSpaceOnUse"><stop offset="0" stop-color="#00bfff"/><stop offset=".28" stop-color="#22a3ff"/><stop offset=".58" stop-color="#141a57"/><stop offset=".7" stop-color="#0a0d48"/><stop offset=".83" stop-color="#04043d"/><stop offset="1" stop-color="#18106b"/></linearGradient><linearGradient id="d" x1="75" y1="1.85" x2="75" y2="147.79" gradientUnits="userSpaceOnUse"><stop offset="0" stop-color="#006be6"/><stop offset="1" stop-color="#001a78"/></linearGradient><linearGradient id="e" x1="75" y1="127.06" x2="75" y2="25.89" gradientUnits="userSpaceOnUse"><stop offset="0" stop-color="#003cb5"/><stop offset=".24" stop-color="#00188f"/><stop offset=".58" stop-color="#141457"/><stop offset=".6" stop-color="#121253"/><stop offset=".86" stop-color="#070736"/><stop offset="1" stop-color="#03032b"/></linearGradient><clipPath id="f"><circle class="p" cx="75" cy="75" r="52.06"/></clipPath><radialGradient id="g" cx="964.22" cy="739.77" fx="964.22" fy="739.77" r="23.41" gradientTransform="translate(-1229.77 -839.83) scale(1.35 1.3)" gradientUnits="userSpaceOnUse"><stop offset="0" stop-color="#0af"/><stop offset=".11" stop-color="#00a9ff" stop-opacity=".98"/><stop offset=".23" stop-color="#00a8ff" stop-opacity=".93"/><stop offset=".36" stop-color="#00a7ff" stop-opacity=".84"/><stop offset=".5" stop-color="#00a5ff" stop-opacity=".71"/><stop offset=".64" stop-color="#00a2ff" stop-opacity=".55"/><stop offset=".78" stop-color="#009fff" stop-opacity=".35"/><stop offset=".93" stop-color="#009bff" stop-opacity=".12"/><stop offset="1" stop-color="#09f" stop-opacity="0"/></radialGradient><linearGradient id="h" x1="75" y1="11.86" x2="75" y2="74.42" gradientUnits="userSpaceOnUse"><stop offset="0" stop-color="aqua"/><stop offset="1" stop-color="#0af" stop-opacity="0"/></linearGradient><linearGradient id="i" x1="72.99" y1="127.66" x2="75.04" y2="75.76" gradientUnits="userSpaceOnUse"><stop offset="0" stop-color="#00b3ff"/><stop offset="1" stop-color="#0071bc" stop-opacity="0"/></linearGradient></defs><circle class="o" cx="75" cy="75" r="75"/><circle class="n" cx="75" cy="75" r="65"/><circle class="l" cx="75" cy="75" r="63"/><circle class="m" cx="75" cy="75" r="52.06"/><g class="q"><ellipse class="j" cx="75.17" cy="121.42" rx="31.68" ry="30.42"/></g><path class="k" d="m75,13.22c34.39,0,62.32,27.55,62.97,61.78h.03c0-34.79-28.21-63-63-63S12,40.21,12,75h.03c.65-34.23,28.58-61.78,62.97-61.78Z"/><path class="t" d="m75,127.06c-28.32,0-51.33-22.61-52.03-50.76h-.03c0,28.75,23.31,51.39,52.06,51.39s52.06-22.64,52.06-51.39h-.03c-.69,28.15-23.71,50.76-52.03,50.76Z"/><rect class="s" x="73.5" y="15" width="3" height="6"/><rect class="r" x="73.75" y="15.5" width="2.5" height="5"/><rect class="u" x="74" y="16" width="2" height="4"/><rect class="s" x="73.5" y="129" width="3" height="6" transform="translate(150 264) rotate(180)"/><rect class="r" x="73.75" y="129.5" width="2.5" height="5" transform="translate(150 264) rotate(180)"/><rect class="u" x="74" y="130" width="2" height="4" transform="translate(150 264) rotate(180)"/><rect class="s" x="58.75" y="16.94" width="3" height="6" transform="translate(-3.11 16.27) rotate(-15)"/><rect class="r" x="59" y="17.44" width="2.5" height="5" transform="translate(-3.11 16.27) rotate(-15)"/><rect class="u" x="59.25" y="17.94" width="2" height="4" transform="translate(-3.11 16.27) rotate(-15)"/><rect class="s" x="88.25" y="127.06" width="3" height="6" transform="translate(210.11 232.45) rotate(165)"/><rect class="r" x="88.5" y="127.56" width="2.5" height="5" transform="translate(210.11 232.45) rotate(165)"/><rect class="u" x="88.75" y="128.06" width="2" height="4" transform="translate(210.11 232.45) rotate(165)"/><rect class="s" x="45" y="22.64" width="3" height="6" transform="translate(-6.59 26.68) rotate(-30)"/><rect class="r" x="45.25" y="23.14" width="2.5" height="5" transform="translate(-6.59 26.68) rotate(-30)"/><rect class="u" x="45.5" y="23.64" width="2" height="4" transform="translate(-6.59 26.68) rotate(-30)"/><rect class="s" x="102" y="121.36" width="3" height="6" transform="translate(255.32 180.32) rotate(150)"/><rect class="r" x="102.25" y="121.86" width="2.5" height="5" transform="translate(255.32 180.32) rotate(150)"/><rect class="u" x="102.5" y="122.36" width="2" height="4" transform="translate(255.32 180.32) rotate(150)"/><rect class="s" x="33.19" y="31.69" width="3" height="6" transform="translate(-14.37 34.69) rotate(-45)"/><rect class="r" x="33.44" y="32.19" width="2.5" height="5" transform="translate(-14.37 34.69) rotate(-45)"/><rect class="u" x="33.69" y="32.69" width="2" height="4" transform="translate(-14.37 34.69) rotate(-45)"/><rect class="s" x="113.81" y="112.31" width="3" height="6" transform="translate(278.37 115.31) rotate(135)"/><rect class="r" x="114.06" y="112.81" width="2.5" height="5" transform="translate(278.37 115.31) rotate(135)"/><rect class="u" x="114.31" y="113.31" width="2" height="4" transform="translate(278.37 115.31) rotate(135)"/><rect class="s" x="24.14" y="43.5" width="3" height="6" transform="translate(-27.45 45.45) rotate(-60)"/><rect class="r" x="24.39" y="44" width="2.5" height="5" transform="translate(-27.45 45.45) rotate(-60)"/><rect class="u" x="24.64" y="44.5" width="2" height="4" transform="translate(-27.45 45.45) rotate(-60)"/><rect class="s" x="122.86" y="100.5" width="3" height="6" transform="translate(276.18 47.55) rotate(120)"/><rect class="r" x="123.11" y="101" width="2.5" height="5" transform="translate(276.18 47.55) rotate(120)"/><rect class="u" x="123.36" y="101.5" width="2" height="4" transform="translate(276.18 47.55) rotate(120)"/><rect class="s" x="18.44" y="57.25" width="3" height="6" transform="translate(-43.41 63.92) rotate(-75)"/><rect class="r" x="18.69" y="57.75" width="2.5" height="5" transform="translate(-43.41 63.92) rotate(-75)"/><rect class="u" x="18.94" y="58.25" width="2" height="4" transform="translate(-43.41 63.92) rotate(-75)"/><rect class="s" x="128.56" y="86.75" width="3" height="6" transform="translate(250.41 -12.64) rotate(105)"/><rect class="r" x="128.81" y="87.25" width="2.5" height="5" transform="translate(250.41 -12.64) rotate(105)"/><rect class="u" x="129.06" y="87.75" width="2" height="4" transform="translate(250.41 -12.64) rotate(105)"/><rect class="s" x="16.5" y="72" width="3" height="6" transform="translate(-57 93) rotate(-90)"/><rect class="r" x="16.75" y="72.5" width="2.5" height="5" transform="translate(-57 93) rotate(-90)"/><rect class="u" x="17" y="73" width="2" height="4" transform="translate(-57 93) rotate(-90)"/><rect class="s" x="130.5" y="72" width="3" height="6" transform="translate(207 -57) rotate(90)"/><rect class="r" x="130.75" y="72.5" width="2.5" height="5" transform="translate(207 -57) rotate(90)"/><rect class="u" x="131" y="73" width="2" height="4" transform="translate(207 -57) rotate(90)"/><rect class="s" x="18.44" y="86.75" width="3" height="6" transform="translate(-61.59 132.25) rotate(-105)"/><rect class="r" x="18.69" y="87.25" width="2.5" height="5" transform="translate(-61.59 132.25) rotate(-105)"/><rect class="u" x="18.94" y="87.75" width="2" height="4" transform="translate(-61.59 132.25) rotate(-105)"/><rect class="s" x="128.56" y="57.25" width="3" height="6" transform="translate(154.59 -80.97) rotate(75)"/><rect class="r" x="128.81" y="57.75" width="2.5" height="5" transform="translate(154.59 -80.97) rotate(75)"/><rect class="u" x="129.06" y="58.25" width="2" height="4" transform="translate(154.59 -80.97) rotate(75)"/><rect class="s" x="24.14" y="100.5" width="3" height="6" transform="translate(-51.18 177.45) rotate(-120)"/><rect class="r" x="24.39" y="101" width="2.5" height="5" transform="translate(-51.18 177.45) rotate(-120)"/><rect class="u" x="24.64" y="101.5" width="2" height="4" transform="translate(-51.18 177.45) rotate(-120)"/><rect class="s" x="122.86" y="43.5" width="3" height="6" transform="translate(102.45 -84.45) rotate(60)"/><rect class="r" x="123.11" y="44" width="2.5" height="5" transform="translate(102.45 -84.45) rotate(60)"/><rect class="u" x="123.36" y="44.5" width="2" height="4" transform="translate(102.45 -84.45) rotate(60)"/><rect class="s" x="33.19" y="112.31" width="3" height="6" transform="translate(-22.31 221.37) rotate(-135)"/><rect class="r" x="33.44" y="112.81" width="2.5" height="5" transform="translate(-22.31 221.37) rotate(-135)"/><rect class="u" x="33.69" y="113.31" width="2" height="4" transform="translate(-22.31 221.37) rotate(-135)"/><rect class="s" x="113.81" y="31.69" width="3" height="6" transform="translate(58.31 -71.37) rotate(45)"/><rect class="r" x="114.06" y="32.19" width="2.5" height="5" transform="translate(58.31 -71.37) rotate(45)"/><rect class="u" x="114.31" y="32.69" width="2" height="4" transform="translate(58.31 -71.37) rotate(45)"/><rect class="s" x="45" y="121.36" width="3" height="6" transform="translate(24.59 255.32) rotate(-150)"/><rect class="r" x="45.25" y="121.86" width="2.5" height="5" transform="translate(24.59 255.32) rotate(-150)"/><rect class="u" x="45.5" y="122.36" width="2" height="4" transform="translate(24.59 255.32) rotate(-150)"/><rect class="s" x="102" y="22.64" width="3" height="6" transform="translate(26.68 -48.32) rotate(30)"/><rect class="r" x="102.25" y="23.14" width="2.5" height="5" transform="translate(26.68 -48.32) rotate(30)"/><rect class="u" x="102.5" y="23.64" width="2" height="4" transform="translate(26.68 -48.32) rotate(30)"/><rect class="s" x="58.75" y="127.06" width="3" height="6" transform="translate(84.78 271.28) rotate(-165)"/><rect class="r" x="59" y="127.56" width="2.5" height="5" transform="translate(84.78 271.28) rotate(-165)"/><rect class="u" x="59.25" y="128.06" width="2" height="4" transform="translate(84.78 271.28) rotate(-165)"/><rect class="s" x="88.25" y="16.94" width="3" height="6" transform="translate(8.22 -22.55) rotate(15)"/><rect class="r" x="88.5" y="17.44" width="2.5" height="5" transform="translate(8.22 -22.55) rotate(15)"/><rect class="u" x="88.75" y="17.94" width="2" height="4" transform="translate(8.22 -22.55) rotate(15)"/></svg>