<?xml version="1.0" encoding="UTF-8"?>
<svg id="a" width="100" height="100" version="1.1" viewBox="0 0 100 100" xmlns="http://www.w3.org/2000/svg">
 <defs>
  <style>.d{fill:url(#c);}.e{fill:url(#b);}.f{fill:#00be32;}</style>
  <radialGradient id="b" cx="75" cy="75" r="50" gradientTransform="translate(-25,-25)" gradientUnits="userSpaceOnUse">
   <stop stop-color="#c4ff4d" offset="0"/>
   <stop stop-color="#b2ff41" offset=".08"/>
   <stop stop-color="#86ff22" offset=".22"/>
   <stop stop-color="#5f0" offset=".37"/>
   <stop stop-color="#00ff2a" offset=".77"/>
   <stop stop-color="#008043" offset=".94"/>
   <stop stop-color="#007b40" offset=".95"/>
   <stop stop-color="#006f3a" offset=".96"/>
   <stop stop-color="#005a2f" offset=".97"/>
   <stop stop-color="#003d20" offset=".98"/>
   <stop stop-color="#00180c" offset=".99"/>
   <stop offset="1"/>
  </radialGradient>
  <radialGradient id="c" cx="2082.3" cy="-1949.2" r="15.52" gradientTransform="matrix(1 0 0 .78 -2072.6 1562.7)" gradientUnits="userSpaceOnUse">
   <stop stop-color="#fff" offset="0"/>
   <stop stop-color="#fff" stop-opacity=".98" offset=".12"/>
   <stop stop-color="#fff" stop-opacity=".93" offset=".25"/>
   <stop stop-color="#fff" stop-opacity=".85" offset=".37"/>
   <stop stop-color="#fff" stop-opacity=".74" offset=".5"/>
   <stop stop-color="#fff" stop-opacity=".59" offset=".63"/>
   <stop stop-color="#fff" stop-opacity=".41" offset=".76"/>
   <stop stop-color="#fff" stop-opacity=".2" offset=".89"/>
   <stop stop-color="#fff" stop-opacity="0" offset="1"/>
  </radialGradient>
 </defs>
 <circle class="e" cx="50" cy="50" r="50" fill="url(#b)"/>
 <path class="f" d="m50 13c20.4 0 37 16.6 37 37s-16.6 37-37 37-37-16.6-37-37 16.6-37 37-37m0-3c-22.09 0-40 17.91-40 40s17.91 40 40 40 40-17.91 40-40-17.91-40-40-40z"/>
 <path class="f" d="m71.54 44.67-27.69-15.99c-4.1-2.37-9.23 0.59-9.23 5.33v31.98c0 4.74 5.13 7.7 9.23 5.33l27.69-15.99c4.1-2.37 4.1-8.29 0-10.66z"/>
 <ellipse class="d" transform="rotate(-34.99)" cx="9.7375" cy="34.661" rx="15.52" ry="12.17" fill="url(#c)"/>
</svg>
